<svg width="133" height="10" viewBox="0 0 133 10" fill="none" xmlns="http://www.w3.org/2000/svg">
<g id="Final Component">
<g id="iphone">
<g id="Frame 194322">
<g clip-path="url(#clip0_8_22316)">
<g id="APP - ">
<rect width="458" height="991.723" transform="translate(-159.609 -95.0399)" fill="white"/>
<g id="Header">
<rect width="458" height="332.203" transform="translate(-159.609 -95.0399)" fill="#001633"/>
<g id="mobile-header">
<path id="Boarding Pass" d="M5.70976 4.72901C6.2561 4.84544 6.69497 5.11862 7.02636 5.54852C7.35775 5.96948 7.52344 6.45313 7.52344 6.99947C7.52344 7.78764 7.24579 8.41459 6.69049 8.88032C6.14415 9.3371 5.37837 9.56549 4.39316 9.56549H2.55377e-05V0.134354H4.24538C5.20372 0.134354 5.95158 0.353787 6.48897 0.792652C7.03531 1.23152 7.30848 1.82712 7.30848 2.57946C7.30848 3.13476 7.1607 3.59602 6.86514 3.96323C6.57853 4.33045 6.19341 4.58571 5.70976 4.72901ZM2.29735 3.9498H3.80204C4.17821 3.9498 4.46481 3.86919 4.66186 3.70798C4.86785 3.5378 4.97085 3.2915 4.97085 2.96907C4.97085 2.64664 4.86785 2.40033 4.66186 2.23016C4.46481 2.05999 4.17821 1.9749 3.80204 1.9749H2.29735V3.9498ZM3.99012 7.71151C4.37525 7.71151 4.67081 7.62642 4.87681 7.45625C5.09176 7.27712 5.19924 7.02186 5.19924 6.69047C5.19924 6.35908 5.08729 6.09935 4.86338 5.91126C4.64842 5.72318 4.34838 5.62913 3.96325 5.62913H2.29735V7.71151H3.99012ZM15.3314 9.65953C14.4447 9.65953 13.6297 9.45354 12.8863 9.04154C12.1519 8.62954 11.5652 8.05633 11.1263 7.3219C10.6964 6.57852 10.4815 5.74557 10.4815 4.82305C10.4815 3.90054 10.6964 3.07207 11.1263 2.33764C11.5652 1.60321 12.1519 1.03 12.8863 0.618002C13.6297 0.206005 14.4447 7.23395e-06 15.3314 7.23395e-06C16.2181 7.23395e-06 17.0286 0.206005 17.7631 0.618002C18.5065 1.03 19.0886 1.60321 19.5096 2.33764C19.9395 3.07207 20.1544 3.90054 20.1544 4.82305C20.1544 5.74557 19.9395 6.57852 19.5096 7.3219C19.0797 8.05633 18.4975 8.62954 17.7631 9.04154C17.0286 9.45354 16.2181 9.65953 15.3314 9.65953ZM15.3314 7.56373C16.0837 7.56373 16.6838 7.31294 17.1316 6.81138C17.5884 6.30982 17.8168 5.64705 17.8168 4.82305C17.8168 3.9901 17.5884 3.32733 17.1316 2.83472C16.6838 2.33316 16.0837 2.08238 15.3314 2.08238C14.5701 2.08238 13.9611 2.32868 13.5043 2.82129C13.0565 3.31389 12.8325 3.98115 12.8325 4.82305C12.8325 5.656 13.0565 6.32326 13.5043 6.82482C13.9611 7.31742 14.5701 7.56373 15.3314 7.56373ZM29.3187 7.89959H25.7988L25.2345 9.56549H22.8297L26.2421 0.134354H28.9022L32.3146 9.56549H29.8829L29.3187 7.89959ZM28.7275 6.12622L27.5587 2.67351L26.4033 6.12622H28.7275ZM40.178 9.56549L38.2165 6.0053H37.6657V9.56549H35.3684V0.134354H39.2241C39.9675 0.134354 40.5989 0.264222 41.1184 0.523959C41.6468 0.783696 42.0409 1.14195 42.3006 1.59873C42.5604 2.04655 42.6903 2.54812 42.6903 3.10342C42.6903 3.73037 42.5111 4.29014 42.1529 4.78275C41.8036 5.27535 41.2841 5.62465 40.5944 5.83065L42.7709 9.56549H40.178ZM37.6657 4.37971H39.0898C39.5107 4.37971 39.8242 4.27671 40.0302 4.07071C40.2451 3.86471 40.3526 3.57363 40.3526 3.19746C40.3526 2.8392 40.2451 2.55707 40.0302 2.35107C39.8242 2.14508 39.5107 2.04208 39.0898 2.04208H37.6657V4.37971ZM49.6809 0.134354C50.6751 0.134354 51.5438 0.331395 52.2872 0.725479C53.0306 1.11956 53.6038 1.67486 54.0069 2.39138C54.4189 3.09894 54.6249 3.91845 54.6249 4.84992C54.6249 5.77244 54.4189 6.59195 54.0069 7.30847C53.6038 8.02498 53.0261 8.58028 52.2738 8.97437C51.5304 9.36845 50.6661 9.56549 49.6809 9.56549H46.1476V0.134354H49.6809ZM49.5331 7.57716C50.4019 7.57716 51.0781 7.33981 51.5618 6.86512C52.0454 6.39043 52.2872 5.7187 52.2872 4.84992C52.2872 3.98115 52.0454 3.30494 51.5618 2.82129C51.0781 2.33764 50.4019 2.09581 49.5331 2.09581H48.4449V7.57716H49.5331ZM60.2212 0.134354V9.56549H57.9239V0.134354H60.2212ZM72.3383 9.56549H70.0409L66.1986 3.74828V9.56549H63.9013V0.134354H66.1986L70.0409 5.97843V0.134354H72.3383V9.56549ZM82.2793 3.11685C82.1091 2.80337 81.8628 2.56603 81.5404 2.40481C81.2269 2.23464 80.8552 2.14955 80.4253 2.14955C79.6819 2.14955 79.0863 2.39586 78.6385 2.88846C78.1907 3.37211 77.9668 4.02145 77.9668 4.83649C77.9668 5.70526 78.1996 6.38595 78.6654 6.87856C79.14 7.36221 79.7894 7.60403 80.6134 7.60403C81.1776 7.60403 81.6523 7.46073 82.0375 7.17412C82.4315 6.88751 82.7181 6.47552 82.8973 5.93813H79.982V4.24536H84.9796V6.38147C84.8095 6.95469 84.5184 7.4876 84.1064 7.9802C83.7034 8.4728 83.1884 8.87137 82.5614 9.17589C81.9345 9.4804 81.2269 9.63266 80.4387 9.63266C79.5073 9.63266 78.6743 9.43114 77.9399 9.0281C77.2144 8.61611 76.6457 8.04737 76.2337 7.3219C75.8306 6.59643 75.6291 5.76796 75.6291 4.83649C75.6291 3.90502 75.8306 3.07655 76.2337 2.35107C76.6457 1.61665 77.2144 1.04791 77.9399 0.644871C78.6654 0.232874 79.4938 0.0268762 80.4253 0.0268762C81.5538 0.0268762 82.5032 0.300048 83.2734 0.846391C84.0527 1.39273 84.5677 2.14955 84.8184 3.11685H82.2793ZM100.317 3.17059C100.317 3.71693 100.192 4.21849 99.9409 4.67527C99.6902 5.12309 99.305 5.48583 98.7856 5.76348C98.2661 6.04113 97.6212 6.17995 96.851 6.17995H95.4269V9.56549H93.1296V0.134354H96.851C97.6033 0.134354 98.2392 0.264222 98.7587 0.523959C99.2782 0.783696 99.6678 1.14195 99.9275 1.59873C100.187 2.05551 100.317 2.57946 100.317 3.17059ZM96.6763 4.35284C97.1152 4.35284 97.4421 4.24984 97.657 4.04384C97.872 3.83784 97.9795 3.54676 97.9795 3.17059C97.9795 2.79442 97.872 2.50333 97.657 2.29734C97.4421 2.09134 97.1152 1.98834 96.6763 1.98834H95.4269V4.35284H96.6763ZM109.399 7.89959H105.879L105.315 9.56549H102.91L106.323 0.134354H108.983L112.395 9.56549H109.964L109.399 7.89959ZM108.808 6.12622L107.639 2.67351L106.484 6.12622H108.808ZM118.861 9.65953C118.172 9.65953 117.554 9.54758 117.007 9.32367C116.461 9.09976 116.022 8.76837 115.691 8.3295C115.368 7.89064 115.198 7.36221 115.18 6.74421H117.625C117.661 7.09351 117.782 7.36221 117.988 7.55029C118.194 7.72942 118.463 7.81898 118.794 7.81898C119.135 7.81898 119.403 7.74285 119.6 7.59059C119.797 7.42938 119.896 7.20995 119.896 6.9323C119.896 6.69943 119.815 6.50686 119.654 6.35461C119.502 6.20235 119.309 6.07696 119.076 5.97843C118.852 5.87991 118.53 5.76796 118.109 5.64257C117.5 5.45448 117.003 5.2664 116.618 5.07831C116.233 4.89023 115.901 4.61258 115.624 4.24536C115.346 3.87815 115.207 3.39898 115.207 2.80785C115.207 1.93012 115.525 1.24495 116.161 0.752349C116.797 0.250788 117.625 7.23395e-06 118.646 7.23395e-06C119.685 7.23395e-06 120.523 0.250788 121.159 0.752349C121.795 1.24495 122.135 1.9346 122.18 2.82129H119.694C119.676 2.51677 119.564 2.27942 119.358 2.10925C119.152 1.93012 118.888 1.84056 118.566 1.84056C118.288 1.84056 118.064 1.91669 117.894 2.06895C117.724 2.21225 117.639 2.42273 117.639 2.70038C117.639 3.00489 117.782 3.24224 118.069 3.41241C118.355 3.58259 118.803 3.76619 119.412 3.96323C120.021 4.16923 120.514 4.36627 120.89 4.55436C121.275 4.74244 121.607 5.01562 121.884 5.37387C122.162 5.73213 122.301 6.19339 122.301 6.75765C122.301 7.29503 122.162 7.78316 121.884 8.22202C121.615 8.66089 121.221 9.01019 120.702 9.26993C120.182 9.52966 119.569 9.65953 118.861 9.65953ZM129.142 9.65953C128.452 9.65953 127.834 9.54758 127.288 9.32367C126.742 9.09976 126.303 8.76837 125.971 8.3295C125.649 7.89064 125.479 7.36221 125.461 6.74421H127.906C127.942 7.09351 128.063 7.36221 128.269 7.55029C128.475 7.72942 128.743 7.81898 129.075 7.81898C129.415 7.81898 129.684 7.74285 129.881 7.59059C130.078 7.42938 130.176 7.20995 130.176 6.9323C130.176 6.69943 130.096 6.50686 129.935 6.35461C129.782 6.20235 129.59 6.07696 129.357 5.97843C129.133 5.87991 128.811 5.76796 128.39 5.64257C127.781 5.45448 127.284 5.2664 126.898 5.07831C126.513 4.89023 126.182 4.61258 125.904 4.24536C125.627 3.87815 125.488 3.39898 125.488 2.80785C125.488 1.93012 125.806 1.24495 126.442 0.752349C127.078 0.250788 127.906 7.23395e-06 128.927 7.23395e-06C129.966 7.23395e-06 130.803 0.250788 131.439 0.752349C132.075 1.24495 132.416 1.9346 132.46 2.82129H129.975C129.957 2.51677 129.845 2.27942 129.639 2.10925C129.433 1.93012 129.169 1.84056 128.846 1.84056C128.569 1.84056 128.345 1.91669 128.175 2.06895C128.005 2.21225 127.919 2.42273 127.919 2.70038C127.919 3.00489 128.063 3.24224 128.349 3.41241C128.636 3.58259 129.084 3.76619 129.693 3.96323C130.302 4.16923 130.794 4.36627 131.171 4.55436C131.556 4.74244 131.887 5.01562 132.165 5.37387C132.442 5.73213 132.581 6.19339 132.581 6.75765C132.581 7.29503 132.442 7.78316 132.165 8.22202C131.896 8.66089 131.502 9.01019 130.983 9.26993C130.463 9.52966 129.85 9.65953 129.142 9.65953Z" fill="white"/>
</g>
</g>
</g>
</g>
</g>
</g>
</g>
<defs>
<clipPath id="clip0_8_22316">
<rect x="-159.609" y="-95.0399" width="458" height="991" rx="70" fill="white"/>
</clipPath>
</defs>
</svg>
