<svg width="422" height="50" viewBox="0 0 422 50" fill="none" xmlns="http://www.w3.org/2000/svg">
<g id="Final Component">
<g id="iphone">
<g id="Frame 194322">
<g clip-path="url(#clip0_8_22316)">
<g id="APP - ">
<g id="Header">
<g id="Frame 194323">
<g id="iPhone X (or newer)/Light/Default" clip-path="url(#clip1_8_22316)">
<g id="Right Side">
<g id="Battery">
<path id="Rectangle" opacity="0.35" d="M381.113 20.0683H399.869C401.215 20.0685 402.306 21.1603 402.306 22.5068V29.2588C402.306 30.6052 401.215 31.697 399.869 31.6972H381.113C379.766 31.6972 378.674 30.6053 378.674 29.2588V22.5068C378.674 21.1602 379.766 20.0683 381.113 20.0683Z" stroke="white" stroke-width="1.12533"/>
<path id="Combined Shape" opacity="0.4" d="M403.995 23.632V28.1334C404.9 27.7521 405.489 26.8653 405.489 25.8827C405.489 24.9002 404.9 24.0133 403.995 23.632Z" fill="white"/>
<path id="Rectangle_2" d="M380.363 23.2569C380.363 22.4283 381.034 21.7565 381.863 21.7565H399.118C399.947 21.7565 400.619 22.4283 400.619 23.2569V28.5085C400.619 29.3372 399.947 30.0089 399.118 30.0089H381.863C381.034 30.0089 380.363 29.3372 380.363 28.5085V23.2569Z" fill="white"/>
</g>
<path id="Wifi" d="M361.368 28.956C362.803 27.7421 364.905 27.7421 366.341 28.956C366.413 29.0213 366.455 29.1135 366.457 29.2108C366.459 29.3082 366.421 29.4024 366.351 29.4706L364.103 31.7382C364.038 31.8048 363.948 31.8427 363.854 31.8427C363.761 31.8427 363.671 31.8048 363.605 31.7382L361.357 29.4706C361.288 29.4024 361.249 29.3082 361.251 29.2108C361.253 29.1135 361.296 29.0212 361.368 28.956ZM358.368 25.9296C361.461 23.053 366.25 23.0532 369.343 25.9296C369.412 25.9971 369.453 26.0903 369.454 26.1874C369.455 26.2842 369.417 26.3774 369.349 26.4462L368.049 27.7597C367.915 27.8935 367.699 27.896 367.561 27.7655C366.546 26.8459 365.224 26.3367 363.854 26.3368C362.485 26.3374 361.165 26.8466 360.15 27.7655C360.013 27.8959 359.797 27.8934 359.663 27.7597L358.363 26.4462C358.295 26.3775 358.257 26.2843 358.258 26.1874C358.259 26.0903 358.298 25.9971 358.368 25.9296ZM355.369 22.912C360.112 18.3664 367.595 18.3664 372.339 22.912C372.407 22.9795 372.447 23.0717 372.447 23.1679C372.448 23.2642 372.41 23.3574 372.342 23.4257L371.041 24.7382C370.907 24.8728 370.69 24.8746 370.554 24.7421C368.746 23.0239 366.348 22.0655 363.854 22.0653C361.361 22.0653 358.962 23.0238 357.154 24.7421C357.018 24.8747 356.801 24.873 356.667 24.7382L355.365 23.4257C355.297 23.3573 355.26 23.2641 355.261 23.1679C355.261 23.0716 355.3 22.9795 355.369 22.912Z" fill="white"/>
<path id="Mobile Signal" d="M332.724 27.3828C333.345 27.383 333.849 27.8874 333.849 28.5088V30.7588C333.849 31.3802 333.345 31.8846 332.724 31.8848H331.598C330.976 31.8846 330.473 31.3802 330.473 30.7588V28.5088C330.473 27.8874 330.976 27.383 331.598 27.3828H332.724ZM337.975 25.1328C338.596 25.1328 339.101 25.6363 339.101 26.2578V30.7588C339.101 31.3803 338.596 31.8848 337.975 31.8848H336.85C336.228 31.8848 335.725 31.3803 335.725 30.7588V26.2578C335.725 25.6363 336.228 25.1328 336.85 25.1328H337.975ZM343.227 22.5068C343.848 22.5069 344.352 23.0104 344.352 23.6318V30.7588C344.352 31.3802 343.848 31.8847 343.227 31.8848H342.102C341.48 31.8848 340.976 31.3803 340.976 30.7588V23.6318C340.976 23.0104 341.48 22.5068 342.102 22.5068H343.227ZM348.478 19.8809C349.099 19.8809 349.604 20.3845 349.604 21.0059V30.7588C349.604 31.3803 349.099 31.8848 348.478 31.8848H347.353C346.731 31.8847 346.228 31.3803 346.228 30.7588V21.0059C346.228 20.3845 346.731 19.8809 347.353 19.8809H348.478Z" fill="white"/>
</g>
<g id="Left Side">
<g id="Time">
<g id="9:41">
<path d="M41.9982 31.7978C45.0231 31.7978 46.8199 29.4323 46.8199 25.4266C46.8199 23.9183 46.5314 22.649 45.9792 21.6681C45.1797 20.1433 43.8032 19.3191 42.0641 19.3191C39.4761 19.3191 37.6463 21.0582 37.6463 23.4979C37.6463 25.7892 39.2948 27.4542 41.5614 27.4542C42.9543 27.4542 44.0835 26.803 44.6439 25.6738H44.6687C44.6687 25.6738 44.7016 25.6738 44.7099 25.6738C44.7264 25.6738 44.7841 25.6738 44.7841 25.6738C44.7841 28.3938 43.7538 30.0175 42.0147 30.0175C40.9927 30.0175 40.2014 29.457 39.9294 28.5586H37.8112C38.1656 30.512 39.8223 31.7978 41.9982 31.7978ZM42.0724 25.7645C40.7042 25.7645 39.7316 24.7919 39.7316 23.432C39.7316 22.105 40.7536 21.0912 42.0806 21.0912C43.4076 21.0912 44.4297 22.1215 44.4297 23.4649C44.4297 24.7919 43.4323 25.7645 42.0724 25.7645Z" fill="white"/>
<path d="M50.2984 31.6824C51.0814 31.6824 51.6172 31.1219 51.6172 30.3801C51.6172 29.6301 51.0814 29.0779 50.2984 29.0779C49.5237 29.0779 48.9797 29.6301 48.9797 30.3801C48.9797 31.1219 49.5237 31.6824 50.2984 31.6824ZM50.2984 25.5008C51.0814 25.5008 51.6172 24.9485 51.6172 24.2067C51.6172 23.4567 51.0814 22.9045 50.2984 22.9045C49.5237 22.9045 48.9797 23.4567 48.9797 24.2067C48.9797 24.9485 49.5237 25.5008 50.2984 25.5008Z" fill="white"/>
<path d="M59.3322 31.5093H61.368V29.2922H62.9752V27.4954H61.368V19.6158H58.3678C56.2661 22.7808 54.5929 25.4266 53.5214 27.3965V29.2922H59.3322V31.5093ZM55.4913 27.4212C56.876 24.9815 58.1123 23.0281 59.2498 21.3467H59.3652V27.5448H55.4913V27.4212Z" fill="white"/>
<path d="M67.5088 31.5093H69.6352V19.6158H67.517L64.4097 21.7918V23.8358L67.3686 21.7588H67.5088V31.5093Z" fill="white"/>
</g>
</g>
</g>
</g>
</g>
</g>
</g>
</g>
</g>
</g>
</g>
<defs>
<clipPath id="clip0_8_22316">
<rect x="-18" y="-15" width="458" height="991" rx="70" fill="white"/>
</clipPath>
<clipPath id="clip1_8_22316">
<rect width="422" height="49.5147" fill="white"/>
</clipPath>
</defs>
</svg>
