<svg width="458" height="117" viewBox="0 0 458 117" fill="none" xmlns="http://www.w3.org/2000/svg">
<g id="Final Component">
<g id="iphone">
<g id="Frame 194322">
<g clip-path="url(#clip0_8_22316)">
<g id="APP - " clip-path="url(#clip1_8_22316)">
<rect width="458" height="991.723" transform="translate(0 -874.475)" fill="white"/>
<g id="Tab Bar (App)" filter="url(#filter0_dd_8_22316)">
<g id="Master - Tab Bar (App)">
<rect width="456.779" height="109.92" transform="translate(1.22134 7.328)" fill="#FAFAFA"/>
<g id="Frame 193690">
<g id="Group 193552" opacity="0.65">
<g id="Home">
<path id="Vector" d="M87.8249 36.0998L85.3985 34.0317L77.2563 27.5179C76.5801 26.9552 75.732 26.6403 74.8524 26.6255C73.9728 26.6107 73.1146 26.8968 72.4198 27.4365L64.2776 34.0317C62.4863 35.4322 61.9326 35.9044 61.7698 36.0998C61.2601 36.5405 60.8509 37.0855 60.5699 37.6979C60.289 38.3104 60.1428 38.976 60.1414 39.6498V54.5827C60.1713 55.8238 60.6887 57.0032 61.5816 57.8657C62.4746 58.7282 63.6713 59.2044 64.9127 59.1912H84.682C85.3036 59.1976 85.9202 59.0813 86.4967 58.8489C87.0732 58.6165 87.5981 58.2726 88.0414 57.8368C88.4847 57.4011 88.8376 56.8822 89.0799 56.3098C89.3222 55.7374 89.4491 55.1228 89.4534 54.5012V39.6498C89.454 38.9757 89.3088 38.3093 89.0277 37.6966C88.7467 37.0838 88.3363 36.5391 87.8249 36.0998ZM86.5873 54.5012C86.5831 54.7557 86.5287 55.0069 86.4274 55.2404C86.3261 55.4739 86.1797 55.6851 85.9968 55.862C85.8138 56.039 85.5977 56.1781 85.361 56.2715C85.1242 56.365 84.8714 56.4108 84.6169 56.4065H64.9127C64.6582 56.4108 64.4054 56.365 64.1686 56.2715C63.9318 56.1781 63.7158 56.039 63.5328 55.862C63.3498 55.6851 63.2035 55.4739 63.1022 55.2404C63.0009 55.0069 62.9465 54.7557 62.9423 54.5012V39.6498C62.9436 39.3793 63.0041 39.1123 63.1194 38.8676C63.2347 38.6229 63.4021 38.4063 63.6099 38.2331C63.7402 38.1191 65.1244 36.9629 65.9712 36.2789L74.1134 29.7652C74.2866 29.6193 74.5058 29.5394 74.7322 29.5394C74.9587 29.5394 75.1778 29.6193 75.351 29.7652L83.4933 36.2789L85.8871 38.2656C86.0906 38.4379 86.2543 38.6524 86.3668 38.8942C86.4793 39.136 86.5378 39.3994 86.5384 39.6661L86.5873 54.5012Z" fill="#0C4D9D"/>
<path id="Vector_2" d="M79.9757 48.476H69.9933C69.6219 48.476 69.2657 48.6235 69.0031 48.8861C68.7404 49.1488 68.5929 49.505 68.5929 49.8764C68.5929 50.2478 68.7404 50.6041 69.0031 50.8667C69.2657 51.1293 69.6219 51.2769 69.9933 51.2769H79.9757C80.1596 51.2769 80.3417 51.2407 80.5116 51.1703C80.6815 51.0999 80.8359 50.9967 80.966 50.8667C81.096 50.7366 81.1992 50.5823 81.2696 50.4123C81.3399 50.2424 81.3762 50.0603 81.3762 49.8764C81.3762 49.6925 81.3399 49.5104 81.2696 49.3405C81.1992 49.1706 81.096 49.0162 80.966 48.8861C80.8359 48.7561 80.6815 48.6529 80.5116 48.5826C80.3417 48.5122 80.1596 48.476 79.9757 48.476Z" fill="#0C4D9D"/>
</g>
<path id="Home_2" d="M63.6829 82.3334H61.9725V77.6102H57.1492V82.3334H55.4317V71.8709H57.1492V76.1504H61.9725V71.8709H63.6829V82.3334ZM73.1471 78.3545C73.1471 79.0129 73.0613 79.5973 72.8895 80.1078C72.7178 80.6183 72.4673 81.05 72.1381 81.4031C71.8089 81.7513 71.4129 82.0185 70.9502 82.2046C70.4874 82.3859 69.965 82.4765 69.3829 82.4765C68.8391 82.4765 68.3405 82.3859 67.8873 82.2046C67.4341 82.0185 67.0405 81.7513 66.7065 81.4031C66.3773 81.05 66.1221 80.6183 65.9408 80.1078C65.7595 79.5973 65.6689 79.0129 65.6689 78.3545C65.6689 77.4814 65.8191 76.742 66.1197 76.1361C66.425 75.5254 66.8592 75.0602 67.4221 74.7406C67.9851 74.4209 68.6554 74.2611 69.433 74.2611C70.163 74.2611 70.807 74.4209 71.3652 74.7406C71.9234 75.0602 72.3599 75.5254 72.6748 76.1361C72.9897 76.7467 73.1471 77.4862 73.1471 78.3545ZM67.4007 78.3545C67.4007 78.9318 67.4698 79.4256 67.6082 79.8358C67.7513 80.2461 67.9708 80.561 68.2666 80.7805C68.5624 80.9952 68.944 81.1025 69.4116 81.1025C69.8791 81.1025 70.2608 80.9952 70.5566 80.7805C70.8524 80.561 71.0694 80.2461 71.2078 79.8358C71.3461 79.4256 71.4153 78.9318 71.4153 78.3545C71.4153 77.7772 71.3461 77.2882 71.2078 76.8875C71.0694 76.4819 70.8524 76.1742 70.5566 75.9643C70.2608 75.7496 69.8767 75.6423 69.4044 75.6423C68.7079 75.6423 68.1998 75.8761 67.8801 76.3436C67.5605 76.8111 67.4007 77.4814 67.4007 78.3545ZM83.8852 74.2611C84.7726 74.2611 85.4405 74.4901 85.889 74.9481C86.3422 75.4061 86.5688 76.1408 86.5688 77.1522V82.3334H84.8871V77.4528C84.8871 76.8517 84.7702 76.3985 84.5365 76.0931C84.3027 75.7878 83.9473 75.6351 83.4702 75.6351C82.8023 75.6351 82.3204 75.8498 82.0246 76.2792C81.7336 76.7038 81.5881 77.3216 81.5881 78.1327V82.3334H79.9064V77.4528C79.9064 77.0521 79.8539 76.7181 79.7489 76.4509C79.6487 76.179 79.4937 75.9762 79.2838 75.8427C79.0738 75.7043 78.8091 75.6351 78.4894 75.6351C78.0266 75.6351 77.6569 75.7401 77.3802 75.95C77.1083 76.1599 76.9127 76.47 76.7934 76.8803C76.6741 77.2858 76.6145 77.7844 76.6145 78.376V82.3334H74.9328V74.4114H76.2424L76.4785 75.4777H76.5715C76.7338 75.201 76.9341 74.9744 77.1727 74.7978C77.416 74.6166 77.6855 74.483 77.9813 74.3971C78.2771 74.3064 78.5848 74.2611 78.9045 74.2611C79.4961 74.2611 79.9946 74.3661 80.4001 74.576C80.8057 74.7811 81.1086 75.096 81.309 75.5206H81.4378C81.6859 75.0912 82.0318 74.774 82.4755 74.5688C82.9191 74.3637 83.3891 74.2611 83.8852 74.2611ZM91.9254 74.2611C92.6315 74.2611 93.2374 74.4066 93.7431 74.6977C94.2488 74.9887 94.6376 75.4014 94.9096 75.9357C95.1815 76.47 95.3175 77.1093 95.3175 77.8536V78.7552H90.029C90.0481 79.5234 90.2532 80.1149 90.6445 80.53C91.0404 80.9451 91.5939 81.1526 92.3047 81.1526C92.8104 81.1526 93.2636 81.1049 93.6644 81.0095C94.0699 80.9093 94.4874 80.7638 94.9167 80.5729V81.9398C94.5208 82.1258 94.1176 82.2618 93.7073 82.3477C93.297 82.4336 92.8056 82.4765 92.2331 82.4765C91.4555 82.4765 90.7709 82.3262 90.1793 82.0257C89.5925 81.7203 89.1321 81.2671 88.7981 80.666C88.469 80.0648 88.3044 79.3182 88.3044 78.4261C88.3044 77.5387 88.4546 76.7849 88.7552 76.1647C89.0558 75.5445 89.478 75.0722 90.0219 74.7477C90.5657 74.4233 91.2003 74.2611 91.9254 74.2611ZM91.9254 75.5278C91.3959 75.5278 90.9665 75.6995 90.6373 76.043C90.3129 76.3865 90.122 76.8899 90.0648 77.553H93.6715C93.6668 77.157 93.6 76.8064 93.4712 76.501C93.3471 76.1957 93.1563 75.9572 92.8987 75.7854C92.6458 75.6137 92.3214 75.5278 91.9254 75.5278Z" fill="#0C4D9D"/>
</g>
<g id="Group 193553">
<g id="Boarding">
<path id="Vector_3" d="M216.904 32.4846C216.869 32.321 216.865 32.1519 216.895 31.987C216.925 31.8222 216.987 31.6649 217.078 31.5241C217.169 31.3833 217.286 31.2619 217.424 31.1669C217.562 31.0718 217.718 31.005 217.882 30.9702L230.225 28.381C230.801 28.2632 231.398 28.3126 231.946 28.5233C232.494 28.7339 232.971 29.097 233.319 29.5697C233.462 29.7691 233.66 29.9228 233.888 30.0124C234.116 30.102 234.365 30.1236 234.606 30.0745C234.844 30.0265 235.064 29.91 235.237 29.7394C235.411 29.5688 235.531 29.3514 235.583 29.1138C235.713 28.5486 235.998 28.0311 236.407 27.6196C236.815 27.2081 237.331 26.9191 237.895 26.7851C239.875 26.3776 241.936 26.7698 243.627 27.8761C244.468 28.4326 245.189 29.1514 245.748 29.9903C246.308 30.8292 246.694 31.7713 246.884 32.7615C246.92 32.9251 246.923 33.0942 246.893 33.2591C246.864 33.4239 246.802 33.5812 246.711 33.722C246.62 33.8628 246.502 33.9842 246.364 34.0792C246.226 34.1743 246.071 34.2411 245.907 34.2759H245.647C245.351 34.2731 245.066 34.1676 244.84 33.9774C244.614 33.7872 244.462 33.5242 244.409 33.2337C244.275 32.5789 244.013 31.957 243.639 31.4035C243.264 30.85 242.784 30.3759 242.226 30.0083C241.667 29.6407 241.042 29.3869 240.386 29.2613C239.729 29.1357 239.054 29.1409 238.4 29.2766C238.302 29.2978 238.212 29.3479 238.142 29.4204C238.073 29.493 238.026 29.5846 238.009 29.6837C237.839 30.3958 237.471 31.0448 236.946 31.5552C236.421 32.0656 235.762 32.4161 235.045 32.5661C234.794 32.6181 234.537 32.6454 234.28 32.6475C233.675 32.6375 233.081 32.4848 232.546 32.2018C232.011 31.9188 231.551 31.5136 231.202 31.019C231.148 30.9344 231.068 30.8686 230.975 30.8307C230.882 30.7928 230.779 30.7846 230.681 30.8073L218.354 33.4617C218.033 33.5153 217.704 33.4439 217.434 33.2621C217.165 33.0803 216.975 32.8021 216.904 32.4846ZM247.666 42.9067V51.5537C247.666 52.5567 247.468 53.5498 247.084 54.4764C246.701 55.403 246.138 56.245 245.429 56.9542C244.72 57.6634 243.878 58.2259 242.951 58.6098C242.025 58.9936 241.031 59.1911 240.028 59.1911C239.44 59.1895 238.864 59.0182 238.37 58.6976C237.876 58.377 237.485 57.9207 237.244 57.3836C237.14 57.165 236.976 56.9802 236.771 56.8506C236.567 56.721 236.33 56.6517 236.088 56.6508C235.846 56.6536 235.61 56.7236 235.405 56.8531C235.201 56.9825 235.037 57.1662 234.931 57.3836C234.69 57.9207 234.299 58.377 233.805 58.6976C233.311 59.0182 232.736 59.1895 232.147 59.1911H222.734C220.709 59.1911 218.766 58.3865 217.334 56.9542C215.902 55.5219 215.097 53.5793 215.097 51.5537V42.9067C215.097 40.8811 215.902 38.9385 217.334 37.5062C218.766 36.0739 220.709 35.2693 222.734 35.2693H232.147C232.736 35.2709 233.311 35.4422 233.805 35.7628C234.299 36.0834 234.69 36.5397 234.931 37.0768C235.037 37.2942 235.201 37.4779 235.405 37.6073C235.61 37.7368 235.846 37.8068 236.088 37.8096C236.33 37.8087 236.567 37.7394 236.771 37.6098C236.976 37.4802 237.14 37.2954 237.244 37.0768C237.485 36.5397 237.876 36.0834 238.37 35.7628C238.864 35.4422 239.44 35.2709 240.028 35.2693C242.054 35.2693 243.997 36.0739 245.429 37.5062C246.861 38.9385 247.666 40.8811 247.666 42.9067ZM245.125 42.9067C245.125 41.5549 244.588 40.2584 243.633 39.3025C242.677 38.3467 241.38 37.8096 240.028 37.8096C239.927 37.8156 239.83 37.8491 239.747 37.9066C239.664 37.964 239.598 38.0431 239.556 38.1353C239.253 38.8012 238.765 39.3658 238.15 39.7617C237.535 40.1576 236.819 40.3682 236.088 40.3682C235.356 40.3682 234.64 40.1576 234.025 39.7617C233.41 39.3658 232.922 38.8012 232.619 38.1353C232.578 38.0431 232.512 37.964 232.428 37.9066C232.345 37.8491 232.248 37.8156 232.147 37.8096H222.734C221.383 37.8096 220.086 38.3467 219.13 39.3025C218.174 40.2584 217.637 41.5549 217.637 42.9067V51.5537C217.637 52.9055 218.174 54.202 219.13 55.1579C220.086 56.1137 221.383 56.6508 222.734 56.6508H232.147C232.248 56.6448 232.345 56.6113 232.428 56.5538C232.512 56.4964 232.578 56.4173 232.619 56.3251C232.922 55.6592 233.41 55.0946 234.025 54.6987C234.64 54.3028 235.356 54.0922 236.088 54.0922C236.819 54.0922 237.535 54.3028 238.15 54.6987C238.765 55.0946 239.253 55.6592 239.556 56.3251C239.598 56.4173 239.664 56.4964 239.747 56.5538C239.83 56.6113 239.927 56.6448 240.028 56.6508C241.38 56.6508 242.677 56.1137 243.633 55.1579C244.588 54.202 245.125 52.9055 245.125 51.5537V42.9067ZM231.056 45.9519H229.525L226.854 41.8808C226.679 41.6263 226.419 41.4423 226.121 41.3618C225.823 41.2813 225.505 41.3094 225.226 41.4411C224.929 41.5767 224.695 41.8216 224.574 42.1248C224.453 42.4281 224.453 42.7664 224.574 43.0695L225.552 46.0333H222.734V45.2191C222.755 45.0391 222.737 44.8568 222.682 44.6842C222.627 44.5116 222.536 44.3526 222.415 44.2175C222.295 44.0824 222.147 43.9743 221.982 43.9003C221.816 43.8263 221.637 43.7881 221.456 43.7881C221.275 43.7881 221.096 43.8263 220.93 43.9003C220.765 43.9743 220.617 44.0824 220.497 44.2175C220.376 44.3526 220.285 44.5116 220.23 44.6842C220.175 44.8568 220.157 45.0391 220.178 45.2191V49.4042C220.157 49.5842 220.175 49.7664 220.23 49.939C220.285 50.1116 220.376 50.2707 220.497 50.4057C220.617 50.5408 220.765 50.6489 220.93 50.7229C221.096 50.7969 221.275 50.8352 221.456 50.8352C221.637 50.8352 221.816 50.7969 221.982 50.7229C222.147 50.6489 222.295 50.5408 222.415 50.4057C222.536 50.2707 222.627 50.1116 222.682 49.939C222.737 49.7664 222.755 49.5842 222.734 49.4042V48.59H225.552L224.574 51.4886C224.457 51.7921 224.459 52.1288 224.58 52.431C224.701 52.7332 224.931 52.9783 225.226 53.117C225.399 53.1988 225.588 53.2432 225.78 53.2473C225.99 53.2501 226.197 53.1992 226.383 53.0995C226.568 52.9998 226.725 52.8545 226.838 52.6773L229.525 48.6714H231.056C231.236 48.6917 231.418 48.6738 231.591 48.6189C231.763 48.5639 231.922 48.4731 232.057 48.3524C232.192 48.2318 232.3 48.0839 232.374 47.9186C232.448 47.7533 232.487 47.5742 232.487 47.393C232.487 47.2119 232.448 47.0328 232.374 46.8675C232.3 46.7022 232.192 46.5543 232.057 46.4336C231.922 46.313 231.763 46.2222 231.591 46.1672C231.418 46.1123 231.236 46.0944 231.056 46.1147V45.9519Z" fill="#0C4D9D"/>
<path id="Vector_4" d="M238.661 49.4204C238.664 49.6594 238.596 49.894 238.465 50.0943C238.335 50.2946 238.148 50.4516 237.928 50.5453C237.708 50.639 237.465 50.6652 237.231 50.6205C236.996 50.5759 236.78 50.4624 236.609 50.2946C236.439 50.1267 236.323 49.912 236.275 49.6778C236.227 49.4437 236.25 49.2005 236.341 48.9794C236.431 48.7582 236.586 48.5691 236.784 48.4359C236.983 48.3028 237.217 48.2317 237.456 48.2317C237.772 48.2316 238.076 48.3563 238.302 48.5788C238.527 48.8013 238.656 49.1036 238.661 49.4204ZM237.456 43.8674C237.217 43.8674 236.983 43.9385 236.784 44.0717C236.586 44.2048 236.431 44.394 236.341 44.6152C236.25 44.8363 236.227 45.0794 236.275 45.3136C236.323 45.5478 236.439 45.7625 236.609 45.9303C236.78 46.0982 236.996 46.2117 237.231 46.2563C237.465 46.301 237.708 46.2748 237.928 46.181C238.148 46.0873 238.335 45.9304 238.465 45.7301C238.596 45.5298 238.664 45.2952 238.661 45.0562C238.661 44.8987 238.629 44.7428 238.569 44.5975C238.508 44.4522 238.419 44.3204 238.307 44.2098C238.195 44.0992 238.062 44.012 237.915 43.9532C237.769 43.8944 237.613 43.8653 237.456 43.8674Z" fill="#0C4D9D"/>
</g>
<path id="My Trips" d="M207.401 82.3334L204.389 73.5956H204.324C204.338 73.7912 204.355 74.0584 204.374 74.3971C204.393 74.7358 204.41 75.0984 204.424 75.4848C204.439 75.8713 204.446 76.241 204.446 76.5941V82.3334H202.886V71.8709H205.297L208.196 80.2223H208.239L211.237 71.8709H213.642V82.3334H212.003V76.5082C212.003 76.1885 212.008 75.8427 212.017 75.4705C212.031 75.0984 212.046 74.7454 212.06 74.4114C212.079 74.0774 212.093 73.8103 212.103 73.6099H212.046L208.918 82.3334H207.401ZM214.883 74.4114H216.715L218.34 78.9342C218.411 79.1393 218.476 79.3421 218.533 79.5424C218.595 79.738 218.648 79.9313 218.69 80.1221C218.738 80.3129 218.776 80.5038 218.805 80.6946H218.848C218.896 80.4465 218.962 80.1698 219.048 79.8645C219.139 79.5544 219.239 79.2443 219.349 78.9342L220.909 74.4114H222.719L219.32 83.4211C219.125 83.9364 218.884 84.3753 218.597 84.7379C218.316 85.1052 217.982 85.3819 217.596 85.568C217.209 85.7588 216.768 85.8542 216.272 85.8542C216.033 85.8542 215.826 85.8399 215.649 85.8113C215.473 85.7875 215.322 85.7612 215.198 85.7326V84.3872C215.298 84.4111 215.425 84.4325 215.577 84.4516C215.73 84.4707 215.888 84.4802 216.05 84.4802C216.35 84.4802 216.61 84.4206 216.83 84.3013C217.049 84.1821 217.235 84.0127 217.388 83.7932C217.541 83.5786 217.667 83.3329 217.767 83.0562L218.046 82.3119L214.883 74.4114ZM231.236 82.3334H229.511V73.3308H226.448V71.8709H234.291V73.3308H231.236V82.3334ZM239.591 74.2611C239.724 74.2611 239.87 74.2683 240.027 74.2826C240.185 74.2969 240.321 74.316 240.435 74.3398L240.278 75.9142C240.178 75.8856 240.053 75.8641 239.906 75.8498C239.762 75.8355 239.634 75.8283 239.519 75.8283C239.219 75.8283 238.932 75.8784 238.66 75.9786C238.388 76.074 238.148 76.2219 237.938 76.4223C237.728 76.6179 237.563 76.8636 237.444 77.1594C237.325 77.4552 237.265 77.7987 237.265 78.1899V82.3334H235.576V74.4114H236.893L237.122 75.8069H237.201C237.358 75.5254 237.554 75.2678 237.787 75.034C238.021 74.8002 238.288 74.6142 238.589 74.4758C238.894 74.3327 239.228 74.2611 239.591 74.2611ZM243.437 74.4114V82.3334H241.756V74.4114H243.437ZM242.607 71.3772C242.865 71.3772 243.087 71.4463 243.273 71.5847C243.464 71.723 243.559 71.9616 243.559 72.3003C243.559 72.6343 243.464 72.8728 243.273 73.0159C243.087 73.1543 242.865 73.2235 242.607 73.2235C242.34 73.2235 242.113 73.1543 241.927 73.0159C241.746 72.8728 241.655 72.6343 241.655 72.3003C241.655 71.9616 241.746 71.723 241.927 71.5847C242.113 71.4463 242.34 71.3772 242.607 71.3772ZM249.767 74.2611C250.707 74.2611 251.461 74.6046 252.029 75.2916C252.601 75.9786 252.887 76.9996 252.887 78.3545C252.887 79.2514 252.754 80.0076 252.487 80.623C252.224 81.2337 251.854 81.6965 251.377 82.0113C250.905 82.3214 250.354 82.4765 249.724 82.4765C249.323 82.4765 248.975 82.424 248.679 82.3191C248.384 82.2141 248.131 82.0781 247.921 81.9112C247.711 81.7394 247.534 81.5533 247.391 81.353H247.291C247.315 81.5438 247.336 81.7561 247.356 81.9899C247.379 82.2189 247.391 82.4288 247.391 82.6196V85.8471H245.702V74.4114H247.076L247.313 75.5063H247.391C247.539 75.2821 247.718 75.0746 247.928 74.8837C248.143 74.6929 248.4 74.5426 248.701 74.4329C249.006 74.3184 249.362 74.2611 249.767 74.2611ZM249.316 75.6351C248.854 75.6351 248.481 75.7282 248.2 75.9142C247.923 76.0955 247.72 76.3698 247.592 76.7372C247.468 77.1045 247.401 77.5649 247.391 78.1183V78.3545C247.391 78.9413 247.451 79.4399 247.57 79.8502C247.694 80.2557 247.897 80.5658 248.178 80.7805C248.465 80.9904 248.851 81.0953 249.338 81.0953C249.748 81.0953 250.087 80.9832 250.354 80.759C250.626 80.5348 250.829 80.2151 250.962 79.8001C251.096 79.385 251.163 78.896 251.163 78.333C251.163 77.4791 251.01 76.8159 250.705 76.3436C250.404 75.8713 249.941 75.6351 249.316 75.6351ZM260.012 80.072C260.012 80.592 259.885 81.0309 259.632 81.3887C259.379 81.7466 259.01 82.0185 258.523 82.2046C258.041 82.3859 257.45 82.4765 256.748 82.4765C256.195 82.4765 255.718 82.4359 255.317 82.3548C254.921 82.2785 254.547 82.1592 254.193 81.997V80.5443C254.57 80.7208 254.993 80.8735 255.46 81.0023C255.932 81.1311 256.379 81.1955 256.798 81.1955C257.352 81.1955 257.75 81.1097 257.993 80.9379C258.237 80.7614 258.358 80.5276 258.358 80.2366C258.358 80.0648 258.308 79.9122 258.208 79.7786C258.113 79.6402 257.931 79.4995 257.664 79.3564C257.402 79.2085 257.015 79.032 256.505 78.8268C256.004 78.6264 255.582 78.4261 255.238 78.2257C254.895 78.0253 254.635 77.7844 254.458 77.5029C254.282 77.2167 254.193 76.8517 254.193 76.408C254.193 75.7067 254.47 75.1747 255.024 74.8122C255.582 74.4448 256.319 74.2611 257.235 74.2611C257.722 74.2611 258.18 74.3112 258.609 74.4114C259.043 74.5068 259.468 74.6476 259.883 74.8336L259.353 76.1003C258.995 75.9428 258.635 75.814 258.273 75.7138C257.915 75.6089 257.55 75.5564 257.178 75.5564C256.743 75.5564 256.412 75.6232 256.183 75.7568C255.959 75.8904 255.847 76.0812 255.847 76.3293C255.847 76.5153 255.901 76.6728 256.011 76.8016C256.121 76.9304 256.309 77.0592 256.577 77.188C256.848 77.3168 257.225 77.4767 257.707 77.6675C258.18 77.8488 258.587 78.0396 258.931 78.24C259.279 78.4356 259.546 78.6765 259.732 78.9628C259.918 79.249 260.012 79.6188 260.012 80.072Z" fill="#0C4D9D"/>
</g>
<g id="Group 193554" opacity="0.65">
<g id="Book">
<path id="Vector_5" d="M396.116 39.4055C396.088 39.3709 396.073 39.3278 396.073 39.2834C396.073 39.239 396.088 39.1959 396.116 39.1613L400.497 34.6668C401.38 33.7736 401.875 32.5682 401.875 31.3122C401.875 30.0561 401.38 28.8508 400.497 27.9576C399.59 27.101 398.39 26.6237 397.142 26.6237C395.895 26.6237 394.694 27.101 393.787 27.9576L389.423 32.4521C389.385 32.4787 389.34 32.493 389.293 32.493C389.246 32.493 389.201 32.4787 389.163 32.4521L377.356 27.1596C376.856 26.933 376.299 26.863 375.759 26.9589C375.218 27.0548 374.719 27.3122 374.328 27.697L372.357 29.6674C372.106 29.9185 371.906 30.2168 371.77 30.5451C371.634 30.8734 371.563 31.2254 371.563 31.5809C371.563 31.9363 371.634 32.2883 371.77 32.6166C371.906 32.945 372.106 33.2432 372.357 33.4943L380.223 41.2783C380.233 41.3013 380.238 41.3263 380.238 41.3515C380.238 41.3768 380.233 41.4018 380.223 41.4248C380.233 41.4506 380.239 41.4783 380.239 41.5062C380.239 41.5342 380.233 41.5619 380.223 41.5877L377.503 44.4374C377.445 44.4601 377.381 44.4601 377.324 44.4374L374.425 44.0303C374.008 43.9685 373.582 44.004 373.181 44.134C372.78 44.2639 372.415 44.4848 372.113 44.7794L370.159 46.7335C369.862 47.0182 369.636 47.3679 369.497 47.7551C369.359 48.1422 369.312 48.5563 369.361 48.9645C369.411 49.3734 369.555 49.7652 369.781 50.1097C370.007 50.4542 370.309 50.7421 370.664 50.9512L374.946 53.5242L375.028 53.6056L377.601 57.8721C377.812 58.2333 378.105 58.5404 378.455 58.7693C378.806 58.9982 379.204 59.1426 379.62 59.1911H379.946C380.301 59.1932 380.652 59.1235 380.98 58.9864C381.307 58.8493 381.603 58.6475 381.851 58.3932L383.74 56.5205C384.028 56.2338 384.246 55.8853 384.379 55.5016C384.511 55.1178 384.555 54.7089 384.505 54.3058L384.098 51.4072C384.084 51.3795 384.076 51.3488 384.076 51.3176C384.076 51.2865 384.084 51.2557 384.098 51.2281L386.883 48.4434C386.925 48.4045 386.98 48.3829 387.038 48.3829C387.095 48.3829 387.15 48.4045 387.192 48.4434L395.074 56.2925C395.589 56.7852 396.275 57.0602 396.987 57.0602C397.7 57.0602 398.386 56.7852 398.901 56.2925L400.936 54.3058C401.328 53.9185 401.591 53.4203 401.69 52.8785C401.789 52.3368 401.719 51.7777 401.49 51.2769L396.116 39.4055ZM381.639 51.684L382.046 54.5826C382.069 54.6402 382.069 54.7042 382.046 54.7618L380.092 56.6508C380.034 56.6719 379.971 56.6719 379.913 56.6508C379.879 56.6453 379.847 56.6322 379.819 56.6125C379.79 56.5927 379.767 56.5668 379.75 56.5368L377.177 52.3191C376.945 51.9409 376.627 51.6229 376.249 51.3909L371.95 48.8342C371.924 48.815 371.901 48.7907 371.885 48.7627C371.868 48.7347 371.857 48.7037 371.852 48.6714C371.837 48.6442 371.828 48.6133 371.828 48.5818C371.828 48.5504 371.837 48.5195 371.852 48.4923L373.741 46.6033C373.789 46.5858 373.841 46.5858 373.888 46.6033L376.819 47.0267C377.245 47.0741 377.676 47.0206 378.078 46.8707C378.48 46.7208 378.841 46.4786 379.131 46.1636L381.932 43.379C382.441 42.8685 382.728 42.178 382.73 41.4574C382.715 40.7825 382.448 40.1377 381.981 39.6498L374.116 31.7356C374.092 31.7173 374.073 31.6939 374.06 31.6671C374.047 31.6402 374.04 31.6108 374.04 31.5809C374.04 31.551 374.047 31.5215 374.06 31.4947C374.073 31.4679 374.092 31.4444 374.116 31.4262L376.086 29.4557C376.123 29.4326 376.165 29.4203 376.208 29.4203C376.252 29.4203 376.294 29.4326 376.331 29.4557L388.137 34.7645C388.644 34.9921 389.21 35.0594 389.757 34.9576C390.304 34.8558 390.806 34.5896 391.198 34.1945L395.579 29.7163C396.031 29.3255 396.609 29.1105 397.207 29.1105C397.805 29.1105 398.383 29.3255 398.836 29.7163C399.054 29.9274 399.228 30.1804 399.347 30.4602C399.466 30.74 399.527 31.0408 399.527 31.3447C399.527 31.6487 399.466 31.9495 399.347 32.2293C399.228 32.5091 399.054 32.7621 398.836 32.9732L394.439 37.484C394.046 37.8523 393.773 38.3308 393.657 38.8569C393.541 39.3829 393.586 39.9318 393.787 40.4315L399.161 52.2377C399.185 52.2742 399.197 52.3166 399.197 52.3598C399.197 52.4031 399.185 52.4454 399.161 52.482L397.207 54.4524C397.165 54.4913 397.11 54.5129 397.052 54.5129C396.995 54.5129 396.94 54.4913 396.898 54.4524L389.016 46.6033C388.765 46.3517 388.467 46.1521 388.138 46.0159C387.81 45.8797 387.458 45.8096 387.103 45.8096C386.747 45.8096 386.395 45.8797 386.067 46.0159C385.739 46.1521 385.44 46.3517 385.189 46.6033L382.388 49.4205C382.098 49.7147 381.879 50.072 381.749 50.4646C381.619 50.8572 381.582 51.2745 381.639 51.684Z" fill="#0C4D9D"/>
</g>
<path id="Book_2" d="M367.721 71.8709H370.834C372.184 71.8709 373.203 72.0665 373.89 72.4577C374.577 72.849 374.921 73.524 374.921 74.483C374.921 74.8837 374.849 75.2463 374.706 75.5707C374.567 75.8904 374.365 76.1551 374.098 76.3651C373.83 76.5702 373.501 76.7086 373.11 76.7801V76.8517C373.516 76.9232 373.876 77.0497 374.191 77.231C374.51 77.4123 374.761 77.6723 374.942 78.011C375.128 78.3497 375.221 78.7886 375.221 79.3277C375.221 79.967 375.068 80.5109 374.763 80.9594C374.463 81.4078 374.031 81.7489 373.468 81.9827C372.91 82.2165 372.246 82.3334 371.478 82.3334H367.721V71.8709ZM369.439 76.1862H371.085C371.862 76.1862 372.402 76.0597 372.702 75.8069C373.003 75.554 373.153 75.1843 373.153 74.6977C373.153 74.2015 372.974 73.8437 372.616 73.6242C372.263 73.4048 371.7 73.295 370.927 73.295H369.439V76.1862ZM369.439 77.5745V80.895H371.249C372.051 80.895 372.614 80.7399 372.938 80.4298C373.263 80.1197 373.425 79.6999 373.425 79.1703C373.425 78.8459 373.351 78.5644 373.203 78.3259C373.06 78.0873 372.824 77.9037 372.495 77.7748C372.165 77.6413 371.722 77.5745 371.163 77.5745H369.439ZM384.077 78.3545C384.077 79.0129 383.991 79.5973 383.819 80.1078C383.648 80.6183 383.397 81.05 383.068 81.4031C382.739 81.7513 382.343 82.0185 381.88 82.2046C381.417 82.3859 380.895 82.4765 380.313 82.4765C379.769 82.4765 379.27 82.3859 378.817 82.2046C378.364 82.0185 377.97 81.7513 377.636 81.4031C377.307 81.05 377.052 80.6183 376.871 80.1078C376.689 79.5973 376.599 79.0129 376.599 78.3545C376.599 77.4814 376.749 76.742 377.05 76.1361C377.355 75.5254 377.789 75.0602 378.352 74.7406C378.915 74.4209 379.585 74.2611 380.363 74.2611C381.093 74.2611 381.737 74.4209 382.295 74.7406C382.853 75.0602 383.29 75.5254 383.605 76.1361C383.92 76.7467 384.077 77.4862 384.077 78.3545ZM378.331 78.3545C378.331 78.9318 378.4 79.4256 378.538 79.8358C378.681 80.2461 378.901 80.561 379.197 80.7805C379.492 80.9952 379.874 81.1025 380.342 81.1025C380.809 81.1025 381.191 80.9952 381.487 80.7805C381.782 80.561 381.999 80.2461 382.138 79.8358C382.276 79.4256 382.345 78.9318 382.345 78.3545C382.345 77.7772 382.276 77.2882 382.138 76.8875C381.999 76.4819 381.782 76.1742 381.487 75.9643C381.191 75.7496 380.807 75.6423 380.334 75.6423C379.638 75.6423 379.13 75.8761 378.81 76.3436C378.49 76.8111 378.331 77.4814 378.331 78.3545ZM392.876 78.3545C392.876 79.0129 392.79 79.5973 392.618 80.1078C392.446 80.6183 392.196 81.05 391.867 81.4031C391.538 81.7513 391.142 82.0185 390.679 82.2046C390.216 82.3859 389.694 82.4765 389.112 82.4765C388.568 82.4765 388.069 82.3859 387.616 82.2046C387.163 82.0185 386.769 81.7513 386.435 81.4031C386.106 81.05 385.851 80.6183 385.67 80.1078C385.488 79.5973 385.398 79.0129 385.398 78.3545C385.398 77.4814 385.548 76.742 385.848 76.1361C386.154 75.5254 386.588 75.0602 387.151 74.7406C387.714 74.4209 388.384 74.2611 389.162 74.2611C389.892 74.2611 390.536 74.4209 391.094 74.7406C391.652 75.0602 392.089 75.5254 392.404 76.1361C392.718 76.7467 392.876 77.4862 392.876 78.3545ZM387.129 78.3545C387.129 78.9318 387.199 79.4256 387.337 79.8358C387.48 80.2461 387.699 80.561 387.995 80.7805C388.291 80.9952 388.673 81.1025 389.14 81.1025C389.608 81.1025 389.989 80.9952 390.285 80.7805C390.581 80.561 390.798 80.2461 390.937 79.8358C391.075 79.4256 391.144 78.9318 391.144 78.3545C391.144 77.7772 391.075 77.2882 390.937 76.8875C390.798 76.4819 390.581 76.1742 390.285 75.9643C389.989 75.7496 389.605 75.6423 389.133 75.6423C388.437 75.6423 387.928 75.8761 387.609 76.3436C387.289 76.8111 387.129 77.4814 387.129 78.3545ZM396.343 71.1982V76.5797C396.343 76.8231 396.334 77.0902 396.315 77.3812C396.295 77.6675 396.276 77.9371 396.257 78.1899H396.293C396.417 78.0229 396.565 77.8273 396.737 77.6031C396.913 77.3789 397.08 77.1833 397.238 77.0163L399.657 74.4114H401.589L398.419 77.8178L401.796 82.3334H399.821L397.288 78.8554L396.343 79.6641V82.3334H394.661V71.1982H396.343Z" fill="#0C4D9D"/>
</g>
</g>
<g id="Home Indicator/Light">
<rect id="Home Indicator" x="147.781" y="101.371" width="163.659" height="6.10667" rx="3.05333" fill="black"/>
</g>
</g>
</g>
</g>
</g>
</g>
</g>
</g>
<defs>
<filter id="filter0_dd_8_22316" x="-8.54932" y="2.86102e-06" width="476.32" height="129.461" filterUnits="userSpaceOnUse" color-interpolation-filters="sRGB">
<feFlood flood-opacity="0" result="BackgroundImageFix"/>
<feColorMatrix in="SourceAlpha" type="matrix" values="0 0 0 0 0 0 0 0 0 0 0 0 0 0 0 0 0 0 127 0" result="hardAlpha"/>
<feOffset dy="1.22133"/>
<feGaussianBlur stdDeviation="1.22133"/>
<feColorMatrix type="matrix" values="0 0 0 0 0 0 0 0 0 0 0 0 0 0 0 0 0 0 0.3 0"/>
<feBlend mode="normal" in2="BackgroundImageFix" result="effect1_dropShadow_8_22316"/>
<feColorMatrix in="SourceAlpha" type="matrix" values="0 0 0 0 0 0 0 0 0 0 0 0 0 0 0 0 0 0 127 0" result="hardAlpha"/>
<feMorphology radius="2.44267" operator="dilate" in="SourceAlpha" result="effect2_dropShadow_8_22316"/>
<feOffset dy="2.44267"/>
<feGaussianBlur stdDeviation="3.664"/>
<feColorMatrix type="matrix" values="0 0 0 0 0 0 0 0 0 0 0 0 0 0 0 0 0 0 0.15 0"/>
<feBlend mode="normal" in2="effect1_dropShadow_8_22316" result="effect2_dropShadow_8_22316"/>
<feBlend mode="normal" in="SourceGraphic" in2="effect2_dropShadow_8_22316" result="shape"/>
</filter>
<clipPath id="clip0_8_22316">
<rect y="-874.475" width="458" height="991" rx="70" fill="white"/>
</clipPath>
<clipPath id="clip1_8_22316">
<rect width="458" height="991.723" fill="white" transform="translate(0 -874.475)"/>
</clipPath>
</defs>
</svg>
