<svg id="_oxqtqg0" xmlns="http://www.w3.org/2000/svg" viewBox="373.005 59.363 225.003 35.914" width="225" height="35.910426980198025">
  <g>
    <path d="M597.207 94.357l-0.251-0.044-0.062-34.471c0.132 0.122 0.245 0.122 0.313 0.134v34.381Z" fill="#FFFFFF" />
    <polygon points="596.896 59.842 596.956 94.313 591.366 94.253 591.292 74.277 574.752 92.855 558.336 74.264 558.26 94.285 552.523 94.257 552.552 59.582 574.791 83.833 596.896 59.842" fill="#FFFFFF" />
  </g>
  <path d="M538.672 60.809l5.571-0.018-0.005 22.7c0 6.161-5.837 9.839-11.514 11.034-5.174 1.089-10.496 1.066-15.633-0.168-5.44-1.306-10.928-4.956-10.893-10.866l-0.009-22.691 5.555-0.009 0.028 21.551c0.004 3.937 4.048 6.133 7.766 6.821s7.682 0.706 11.494-0.012c3.657-0.688 7.674-2.942 7.635-6.814V60.809Z" fill="#FFFFFF" />
  <g>
    <path d="M494.243 77.039c3.713 1.253 5.528 4.218 5.71 7.86 0.18 3.632-1.459 6.846-4.992 8.126-2.052 0.884-4.227 1.108-6.55 1.244l-27.963 0.019-0.004-33.479 27.757 0.009c2.196 0.086 4.153 0.468 6.002 1.486 2.625 1.513 4.267 4.088 4.327 7.135 0.214 3.164-1.24 5.773-4.285 7.598ZM492.606 72.185c0.769-1.362 0.658-3.06-0.24-4.412-0.658-0.992-2.076-1.918-3.609-1.923l-22.751-0.057 0.013 9.029 21.967-0.014c1.958-0.092 3.666-0.936 4.62-2.623ZM493.239 87.439c1.533-1.775 1.231-4.679-0.374-6.207-1.099-1.045-2.484-1.228-3.967-1.4l-22.883-0.017v9.472s22.631-0.03 22.631-0.03c1.676-0.265 3.39-0.42 4.595-1.818Z" fill="#FFFFFF" />
    <g>
      <path d="M410.358 86.839l-22.606 0.009-7.849 7.467-6.699-0.03L408.807 60.878l7.132-0.009v33.446s-5.55 0.007-5.551 0.007l-0.03-7.485ZM410.395 81.841l-0.06-16.184-17.15 16.187h17.21Z" fill="#FFFFFF" />
      <polygon points="454.863 89.278 454.873 94.28 423.362 94.285 423.364 60.853 428.933 60.835 428.926 89.287 454.863 89.278" fill="#FFFFFF" />
    </g>
  </g>
</svg>