<svg xmlns="http://www.w3.org/2000/svg" viewBox="717.937 74.064 184.004 18.878" width="184" height="18.866">
  <path d="M902.333 74.373h-5.488l-6.574 7.278V74.373h-4.608l0.023 17.918h4.585V85.482l6.235 6.809h5.827l-8.402-8.846 8.402-9.072z m-24.1 7.369l-4.202-0.471c-2.462-0.269-3.071-0.874-3.072-1.702 0-0.918 1.265-1.747 3.727-1.748 2.372 0 3.615 0.874 3.84 2.195h4.517c-0.229-3.786-3.435-6.137-8.108-6.136-5.557 0-8.358 2.194-8.358 6.068 0 3.158 1.852 4.638 5.691 5.041l4.27 0.447c1.627 0.18 2.372 0.807 2.372 1.613 0 0.918-1.084 1.747-3.705 1.748-3.027 0-4.246-0.762-4.449-2.286h-4.428c0.204 4.122 2.913 6.227 8.72 6.227 5.308 0 8.268-2.307 8.266-5.778 0-3.025-1.762-4.839-5.081-5.218z m-28.485 10.549h14.547v-3.875h-9.939V85.168h7.996V81.271h-7.996V78.247h9.939V74.373h-14.547v17.918z m-10.843-17.918h-8.447v17.918h8.447c6.484 0 8.268-2.397 8.268-9.095 0-6.294-1.716-8.824-8.268-8.823z m-0.185 14.045h-3.664V78.247h3.664c2.892 0 3.75 0.785 3.75 4.949 0.004 3.808-0.966 5.221-3.75 5.222zM817.945 73.88c-6.574 0-9.984 4.009-9.985 9.406 0 5.421 3.411 9.452 9.985 9.452 6.596 0 10.006-4.031 10.006-9.452 0-5.398-3.411-9.407-10.006-9.406z m0 14.827c-3.411 0-5.286-2.061-5.287-5.421 0-3.292 1.875-5.376 5.287-5.375 3.435 0 5.286 2.084 5.285 5.375 0 3.36-1.852 5.421-5.285 5.421zM790.973 78.247h5.828v14.044h4.608V78.247h5.806V74.373H790.973v3.874zM784.266 85.436c0 2.33-1.446 3.271-3.909 3.271-2.394 0-3.952-0.986-3.952-3.271V74.373h-4.608v11.578c0 5.175 4.653 6.787 8.56 6.787 3.886 0 8.516-1.612 8.516-6.787v-11.578H784.266zM758.312 74.373l-6.935 17.918h4.765l1.211-3.361h7.741l1.192 3.361h4.922L764.189 74.373z m0.412 10.75l2.532-7.024 2.489 7.027zM717.089 92.292l16.181-9.981h8.394a0.49 0.486 0 0 1 0.49 0.488 0.426 0.422 0 0 1-0.228 0.408l-7.948 4.725c-0.517 0.307-0.697 0.922-0.697 1.382l-0.008 2.978h10.1V74.987a0.62 0.614 0 0 0-0.646-0.616H733.089L716.947 84.309v7.983z" fill="#FFFFFFB3" />
</svg>
