<svg xmlns="http://www.w3.org/2000/svg" viewBox="0 0 152.002 48.553" width="152" height="48.5511868533171">
  <g id="_s7njfh0">
    <g id="_s7njfh1">
      <path d="M64.746 22.939H55.26V4.638H64.433c3.397 0 5.293 1.667 5.293 4.814 0 1.649-0.711 2.991-1.872 3.715a0.125 0.125 90 0 0 0.01 0.22c1.477 0.721 2.363 2.118 2.363 4.262C70.224 20.982 67.959 22.939 64.746 22.939ZM57.815 7.04V12.285a0.127 0.127 90 0 0 0.126 0.127h6.358c1.791 0 2.764-1.031 2.764-2.777S66.14 6.913 64.299 6.913h-6.358A0.127 0.127 90 0 0 57.815 7.04Zm0 7.695v5.803a0.127 0.127 90 0 0 0.126 0.127h6.516c2.027 0 3.081-1.243 3.081-3.094 0-1.799-1.027-2.963-3.081-2.963H57.941A0.127 0.127 90 0 0 57.815 14.735Z" fill="#FFFFFFB3" />
      <path d="M71.777 5.75a1.642 1.634 90 0 1 1.659-1.666 1.664 1.657 90 0 1 1.686 1.666 1.682 1.674 90 0 1-1.686 1.665A1.658 1.651 90 0 1 71.777 5.75Zm2.923 17.189H72.198v-14.142h2.502Z" fill="#FFFFFFB3" />
      <path d="M88.527 8.791h2.418v11.741c0 5.315-3.239 7.245-7.374 7.245-2.418 0-4.371-0.793-5.504-1.533l0.975-1.984a8.556 8.521 90 0 0 4.552 1.323c2.633 0 4.845-1.217 4.845-4.258h0a0.127 0.127 90 0 0-0.226-0.078c-0.729 0.914-2.251 1.928-4.488 1.929-4.239 0-7.215-2.936-7.215-7.298 0-4.151 3.001-7.326 7.162-7.326 1.991 0 3.677 0.79 4.627 1.872a0.125 0.125 90 0 0 0.218-0.086Zm-4.74 12.142c2.818 0 4.767-2.115 4.767-5.051s-1.975-5.077-4.767-5.077-4.74 2.143-4.74 5.077S81.023 20.929 83.787 20.929Z" fill="#FFFFFFB3" />
      <path d="M66.214 45.401H63.714l-5.789-14.285a0.125 0.125 90 0 0-0.241 0.048v14.241h-2.419V27.1H58.999l5.913 14.885a0.127 0.127 90 0 0 0.235 0l5.913-14.885h3.66V45.401H72.193V31.164a0.127 0.127 90 0 0-0.244-0.047Z" fill="#FFFFFFB3" />
      <path d="M83.787 31.014c4.241 0 7.269 3.068 7.269 7.3s-3.129 7.324-7.294 7.324c-4.213 0-7.242-2.987-7.242-7.299C76.524 34.056 79.654 31.014 83.787 31.014Zm0 12.35c2.792 0 4.74-2.088 4.74-5.025C88.527 35.427 86.553 33.284 83.787 33.284c-2.817 0-4.74 2.115-4.74 5.051S81.023 43.364 83.787 43.364Z" fill="#FFFFFFB3" />
      <path d="M100.331 36.33c0-1.877-0.789-2.988-2.501-2.989-1.686 0-2.58 1.217-2.58 3.069v8.991H92.748v-14.143h2.502v0.91a0.125 0.125 90 0 0 0.217 0.086c0.498-0.541 1.465-1.154 2.969-1.154 3.212 0 4.397 2.221 4.397 4.971v9.335H100.331Z" fill="#FFFFFFB3" />
      <path d="M111.642 31.014c4.239 0 7.267 3.068 7.268 7.3s-3.129 7.324-7.295 7.324c-4.213 0-7.242-2.987-7.242-7.299C104.373 34.056 107.507 31.014 111.642 31.014Zm0 12.35c2.791 0 4.74-2.088 4.74-5.025C116.382 35.427 114.406 33.284 111.642 33.284c-2.818 0-4.741 2.115-4.741 5.051S108.877 43.364 111.642 43.364Z" fill="#FFFFFFB3" />
      <path d="M131.247 41.751l1.474 1.56c-0.842 1-2.528 2.327-5.214 2.327-4.344 0-7.215-3.12-7.215-7.299 0-4.151 3.054-7.326 7.189-7.325 2.764 0 4.45 1.27 5.24 2.274l-1.554 1.587A4.857 4.836 90 0 0 127.507 33.284c-2.791 0-4.662 2.169-4.661 5.051 0 3.014 2.054 5.024 4.694 5.025C129.403 43.364 130.535 42.438 131.247 41.751Z" fill="#FFFFFFB3" />
      <path d="M137.368 45.401H134.866V26.069h2.502Z" fill="#FFFFFFB3" />
      <path d="M141.699 39.08a0.127 0.127 90 0 0-0.125 0.143c0.232 2.589 1.93 4.173 4.552 4.172 2.237 0 3.502-1.143 4.397-2.803l1.921 1.001c-0.92 2.169-3.001 4.045-6.318 4.045-4.241 0-7.136-2.857-7.137-7.271 0-4.286 2.845-7.352 6.873-7.353 4.135 0 6.848 2.671 6.9 6.929a9.408 9.369 90 0 1-0.053 1.142Zm0.088-2.036h8.222a0.127 0.127 90 0 0 0.127-0.143c-0.215-2.25-1.908-3.724-4.307-3.724-2.245 0-3.805 1.429-4.167 3.714A0.127 0.127 90 0 0 141.787 37.044Z" fill="#FFFFFFB3" />
      <path d="M48.493 21.513l-0.444-2.534-16.952 3.143a0.127 0.127 90 0 1-0.085-0.236l15.002-8.528-1.281-2.228L29.877 19.918a0.127 0.127 90 0 1-0.161-0.192l11.192-13.167-1.963-1.654-10.969 13.354a0.127 0.127 90 0 1-0.216-0.124l6.031-16.218L31.384 1.037 25.625 17.354a0.125 0.125 90 0 1-0.244-0.043L25.526 0h-2.561l0.142 17.311a0.125 0.125 90 0 1-0.245 0.043L17.103 1.037l-2.407 0.88L20.727 18.142a0.125 0.125 90 0 1-0.215 0.124L9.542 4.905 7.581 6.559 18.772 19.726a0.127 0.127 90 0 1-0.16 0.192L3.756 11.142l-1.28 2.229 15.001 8.528a0.127 0.127 90 0 1-0.085 0.236l-16.951-3.143L-0.005 21.513l17.001 2.857a0.127 0.127 90 0 1 0 0.25L-0.005 27.489l0.445 2.532 16.95-3.142a0.127 0.127 90 0 1 0.086 0.234L2.474 35.637l1.281 2.229L18.612 29.084a0.127 0.127 90 0 1 0.16 0.192L7.581 42.442l1.961 1.654 10.97-13.355a0.127 0.127 90 0 1 0.215 0.126L14.696 47.084l2.407 0.879 5.759-16.316a0.127 0.127 90 0 1 0.245 0.045l-0.142 17.31h2.561l-0.143-17.31a0.127 0.127 90 0 1 0.245-0.045l5.759 16.316 2.407-0.879-6.031-16.217a0.127 0.127 90 0 1 0.216-0.126l10.969 13.355 1.963-1.654-11.192-13.166a0.127 0.127 90 0 1 0.161-0.192L44.732 37.866l1.28-2.229L31.012 27.107a0.127 0.127 90 0 1 0.085-0.234l16.952 3.142 0.444-2.532-17-2.857a0.127 0.127 90 0 1 0-0.25Z" fill="#FFFFFFB3" />
    </g>
  </g>
</svg>