<svg xmlns="http://www.w3.org/2000/svg" width="147" height="41.154" viewBox="0 0 38.894 10.89">
  <g>
    <g transform="matrix(0.132,0,0,0.121,48.814,33.112)">
      <path d="M-1446.573-826.486V-682.392h143.941c48.679 0 63.585-17.027 63.584-41.716 0-24.69-27.717-37.461-45.184-38.099 10.015-3.619 16.77-12.344 16.769-27.031 0-22.774-17.701-37.247-54.734-37.248z m345.41 25.329c-27.717 0-58.694 8.513-71.271 22.774l-2.097-20.22H-1215.057V-682.392h46.581V-749.011c10.947-13.835 44.72-16.176 67.313-16.176z m107.839 0c-59.16 0-90.836 14.686-90.836 60.66 0 45.761 31.676 60.66 90.836 60.66 46.35 0 74.066-9.79 84.547-30.011L-950.701-720.064c-7.22 7.663-21.661 12.77-42.856 12.77-28.415 0-42.623-7.024-45.885-23.838H-903.886v-5.747c0-45.761-18.4-64.278-89.439-64.278z m598.819 0c-59.16 0-90.836 14.686-90.836 60.66 0 45.761 31.676 60.66 90.836 60.66 46.35 0 74.066-9.79 84.547-30.011L-351.882-720.064c-7.22 7.663-21.661 12.77-42.856 12.77-28.415 0-42.623-7.024-45.884-23.838h135.555v-5.747c0-45.761-18.4-64.278-89.438-64.278z m-1005.485 9.365h71.271c6.754 0 13.975 1.915 13.975 10.642 0 9.79-7.919 11.494-16.304 11.494h-68.942z m406.433 18.092c25.853 0 40.993 5.321 44.719 19.368H-1038.276c3.959-14.048 18.866-19.368 44.719-19.368z m598.82 0c25.853 0 40.993 5.321 44.718 19.368h-89.438c3.959-14.048 18.866-19.368 44.719-19.368z m-1005.253 32.139h90.369c9.783 0 18.633 1.49 18.634 12.132 0 9.578-8.851 10.854-16.071 10.855h-92.932z" transform="scale(0.254 0.275)" fill="#FFFFFF" />
      <path d="M-507.42-981.84c-39.444 1.385-69.926 18.724-84.345 32.196l-108.399 101.296-38.905-36.019c-9.901-9.166-18.089-19.009-44.993-18.525l-24.501 0.442 108.548 101.883z m-281.873 180.683c-59.16 0-90.836 14.686-90.835 60.66 0 45.761 31.676 60.66 90.835 60.66 46.35 0 74.067-9.79 84.548-30.011L-746.67-720.064c-7.22 7.663-21.661 12.77-42.856 12.77-28.415 0-42.623-7.024-45.883-23.838h135.555v-5.747c0-45.761-18.401-64.278-89.439-64.278z m111.333 2.554v28.095h102.948L-679.823-713.041V-682.392h175.151v-28.946h-105.976l105.277-58.319v-28.946z m-111.565 24.902c25.853 0 40.993 5.321 44.719 19.369h-89.439c3.959-14.048 18.866-19.368 44.719-19.369z" transform="scale(0.254 0.275)" fill="#FFFFFF" />
    </g>
  </g>
</svg>
