<svg xmlns="http://www.w3.org/2000/svg" viewBox="0 0 269 30.743" aria-labelledby="logo-" width="269" height="30.737902002427184">
  <path d="M207.501 8.271h-3.287c-2.834 0-3.929 0.685-5.403 4.184l-4.194 9.965c-2.305 5.477 0.378 7.835 3.967 7.835h6.99c4.572 0 6.839-1.521 6.839-7.302V13.558c-0.038-3.842-1.776-5.287-4.912-5.287Zm-0.189 14.72c0 1.407-0.642 2.244-1.738 2.244h-4.496c-1.474 0-1.738-1.255-1.246-2.473l2.984-8.063c0.34-0.875 0.945-1.407 1.738-1.407h1.246c0.983 0 1.511 0.685 1.512 1.939v7.76Z" fill="#FFFFFFB3" />
  <path d="M258.506 7.853c0-1.331 0.945-2.206 2.644-2.207h6.499V0.588h-6.499c-4.647 0-7.783 2.739-7.782 6.961 0 6.504 9.559 8.482 9.558 13.768 0 2.206-1.322 3.917-4.193 3.918h-2.569l-9.635-15.557 7.821-9.089h-5.894l-8.501 10.307V0.588h-5.1V22.762h5.1v-5.439l3.212-3.727 9.748 16.659h4.911c7.858 0 10.201-4.792 10.201-8.938 0.038-8.063-9.521-10.269-9.521-13.464Z" fill="#FFFFFFB3" />
  <path d="M232.89 25.234l-5.025-9.889c2.569-1.636 4.723-3.689 4.723-7.188 0-4.906-2.682-7.531-8.048-7.531h-20.704l-2.153 5.059h13.223V30.369h5.101v-10.536l3.702-2.053 5.856 12.551h20.629l-2.947-5.059h-14.357v-0.038Zm-12.883-19.588h4.533c2.153 0 3.25 0.989 3.25 2.929 0 1.863-1.209 2.814-3.552 4.032l-4.269 2.32V5.646h0.038Z" fill="#FFFFFFB3" />
  <polygon points="195.637 0.588 186.154 24.474 186.154 0.588 183.056 0.588 181.054 0.588 177.653 0.588 167.755 25.615 167.755 0.588 162.654 0.588 162.654 30.255 171.193 30.255 181.054 5.571 181.054 30.255 188.724 30.255 201.229 0.588 195.637 0.588" fill="#FFFFFFB3" />
  <path d="M144.406 0.588h-3.326V21.811h5.101V5.723c5.214 0.722 8.879 4.792 8.879 9.66 0 5.515-4.496 9.775-11.486 9.776h-16.624l1.738-3.386h9.446v-5.058h-6.877l1.776-3.461h5.138V8.195h-7.783l-7.481 14.758-1.511 2.928-2.191 4.298h24.369c10.277 0 16.624-6.542 16.624-14.834 0-8.178-6.348-14.757-15.793-14.757Z" fill="#FFFFFFB3" />
  <path d="M93.174 22.572h7.254c-0.68-1.559-1.096-3.271-1.323-5.058h-5.931v-3.728h5.894c0.151-1.75 0.529-3.461 1.171-5.02h-7.065v-3.119h8.727c0.567-0.837 1.247-1.636 1.965-2.32 1.096-1.065 2.381-1.977 3.778-2.701h-19.42V22.61h4.95v-0.038Z" fill="#FFFFFFB3" />
  <path d="M101.825 25.234h-16.095V0.588h-5.1V30.255h26.523c-1.322-0.761-2.493-1.674-3.552-2.777-0.642-0.722-1.247-1.445-1.776-2.244Z" fill="#FFFFFFB3" />
  <polygon points="74.85 0.588 69.749 0.588 69.749 30.255 71.525 30.255 74.85 30.255 78.439 30.255 78.439 25.234 74.85 25.234 74.85 0.588" fill="#FFFFFFB3" />
  <path d="M51.349 15.383c0 4.374 3.551 7.911 7.859 7.911s7.858-3.575 7.859-7.911-3.551-7.911-7.859-7.911-7.858 3.537-7.859 7.911Zm11.033 0c0 1.826-1.36 3.271-3.174 3.272s-3.174-1.445-3.174-3.272 1.36-3.271 3.174-3.27 3.174 1.445 3.174 3.27Z" fill="#FFFFFFB3" />
  <path d="M44.549 5.646c0.642-0.989 1.398-1.94 2.267-2.776 0.831-0.837 1.776-1.597 2.757-2.244H0.948V5.685H9.79L3.744 30.331h5.101L14.928 5.685h29.621v-0.039Z" fill="#FFFFFFB3" />
  <path d="M44.587 25.234h-8.048v-3.384h6.309c-0.605-1.597-0.983-3.309-1.133-5.059h-5.176v-3.461h5.252c0.189-1.674 0.605-3.309 1.247-4.831 0.038-0.076 0.076-0.152 0.075-0.19h-11.599V30.293h18.135c-1.02-0.685-2.002-1.445-2.871-2.358-0.831-0.837-1.549-1.75-2.191-2.701Z" fill="#FFFFFFB3" />
  <polygon points="23.92 16.791 19.462 16.791 21.313 8.271 16.552 8.271 11.565 30.255 16.59 30.255 18.404 21.811 23.92 21.811 23.92 30.255 28.983 30.255 28.983 8.271 23.92 8.271 23.92 16.791" fill="#FFFFFFB3" />
  <path d="M115.691 25.234c-5.441 0-9.408-4.336-9.407-9.774 0-5.515 4.043-9.775 11.07-9.775h6.083l-0.567 1.103-0.567 1.103-7.065 13.92h5.441l7.14-13.996 0.567-1.103 0.567-1.103h9.634V0.55h-21.195c-5.629 0-9.937 1.94-12.695 5.059-0.831 0.951-1.549 2.016-2.078 3.119-0.755 1.559-1.209 3.233-1.36 5.058-0.038 0.533-0.076 1.065-0.076 1.597 0 0.722 0.038 1.445 0.151 2.131 0.227 1.826 0.755 3.499 1.512 5.058 0.491 0.951 1.058 1.826 1.7 2.625 2.569 3.119 6.461 5.058 11.145 5.058h0.719l2.833-5.058h-3.552v0.037Z" fill="#FFFFFFB3" />
  <path d="M54.674 0.588c-2.984 0.913-5.554 2.7-7.405 5.058-0.642 0.799-1.209 1.674-1.7 2.625-0.793 1.559-1.322 3.233-1.549 5.059-0.076 0.685-0.151 1.369-0.152 2.092 0 0.456 0.038 0.951 0.076 1.407 0.151 1.788 0.605 3.499 1.284 5.058 0.567 1.217 1.247 2.358 2.079 3.385 1.927 2.396 4.572 4.184 7.631 5.059 1.36 0.381 2.796 0.608 4.308 0.608 2.984 0 5.743-0.799 8.085-2.243v-5.706c-2.191 1.788-4.874 2.891-8.085 2.891-5.743 0-10.239-4.564-10.239-10.383s4.496-10.384 10.239-10.384c3.212 0 5.894 1.103 8.085 2.891V2.3C64.989 0.855 62.23 0.056 59.246 0.056c-1.624-0.152-3.136 0.076-4.572 0.532Z" fill="#FFFFFFB3" />
</svg>