<svg id="_wtk6dh0" xmlns="http://www.w3.org/2000/svg" viewBox="82 17.571 172 36.857" width="172" height="36.85714285714286">
  <path d="M254 32.917v6.166c-2.063 8.155-10.929 13.202-18.889 10.504s-12.496-11.763-8.692-19.687c2.846-5.925 8.861-8.973 15.296-8.15 5.754 0.735 10.827 5.293 12.29 11.167ZM237.082 29.679c-3.896 1.429-5.032 5.73-3.558 9.163s5.216 4.723 8.58 3.443c3.42-1.3 5.099-5.422 3.808-8.726-1.382-3.541-4.848-5.339-8.83-3.885Z" fill="#FFFFFF" />
  <path d="M97.869 17.5l-0.041 10.098c-3.624 1.418-5.779 4.646-5.851 8.217-0.077 3.787 2.063 7.071 5.882 8.356l0.01 10.329h-1.535C88.645 54.228 82.169 47.259 82 39.597v-7.194C82.082 24.885 88.297 17.968 95.822 17.5h2.047Z" fill="#FFFFFF" />
  <path d="M174.885 41.242c-2.437 6.105-9.071 9.846-15.285 8.941-5.293-0.771-9.568-4.132-11.339-8.191-2.252-5.154-1.628-10.73 1.679-14.81s7.914-6.048 13.023-5.489c4.745 0.519 9.02 3.16 11.503 7.889 1.807 3.433 2.058 7.559 0.419 11.66ZM158.786 29.689c-3.778 1.49-4.832 6.043-3.501 9.086 1.51 3.453 5.36 4.748 8.605 3.52 3.583-1.357 5.032-5.493 3.793-8.906s-5.15-5.175-8.892-3.7Z" fill="#FFFFFF" />
  <path d="M192.116 49.957l-6.102-9.378-0.251 9.121-7.53 0.144V22.125s12.035 0.195 12.035 0.195c4.254 0.072 7.592 3.294 8.303 6.928 0.845 4.332-0.676 8.166-4.714 10.246l7.161 10.273-8.902 0.18ZM189.905 34.006c1.382-0.755 1.613-3.13 0.548-4.024-1.29-1.084-2.897-1.285-4.5-1.156v5.56c1.285 0.149 2.616 0.355 3.952-0.38Z" fill="#FFFFFF" />
  <path d="M222.093 45.168c-3.174 6.239-12.895 6.3-19.749 2.708l0.189-8.017c4.628 3.423 11.677 4.512 12.532 1.969 0.266-0.786-0.323-1.665-1.316-1.928l-6.45-1.685c-4.628-1.213-6.373-6.167-4.648-10.73 2.473-6.537 12.014-7.518 19.048-3.638l-0.02 7.764c-4.96-3.505-11.835-3.551-11.749-1.51 0.015 0.401 0.312 1.259 0.978 1.449l7.044 2.045c2.432 0.704 4.075 2.59 4.776 4.383 1.014 2.605 0.594 4.774-0.635 7.19Z" fill="#FFFFFF" />
  <path d="M136.38 42.316c3.077 1.11 6.005-0.149 8.523-1.753l0.077 7.971c-5.82 3.325-13.376 1.953-17.784-3.495-5.416-6.696-3.322-17.364 3.794-21.46 4.5-2.59 9.46-2.672 13.893-0.282l-0.016 7.77c-2.974-1.716-6.399-2.605-9.485-1.1-2.421 1.182-3.399 3.828-3.297 6.259s1.377 5.031 4.29 6.085Z" fill="#FFFFFF" />
  <path d="M106.597 42.383c3.061-0.833 5.723 1.475 6.322 4.008 0.676 2.842-1.244 5.735-3.798 6.408-2.892 0.761-5.549-0.971-6.424-3.469-0.993-2.842 0.578-6.038 3.9-6.942Z" fill="#FFFFFF" />
  <path d="M105.574 19.396c3-1.3 5.887 0.262 7.166 2.909 1.183 2.446-0.292 5.627-2.974 6.871-2.38 1.105-5.39 0-6.726-2.308-1.438-2.487-0.379-6.213 2.534-7.472Z" fill="#FFFFFF" />
</svg>