<svg xmlns="http://www.w3.org/2000/svg" viewBox="0 0.004 205.554 22.011" width="205.54" height="22">
  <path d="M21.155 11.797c0 5.632-3.922 10.288-10.048 10.288-5.897 0-11.107-4.34-11.106-11.007S5.583 0.044 11.08 0.044c3.55 0 5.754 1.006 7.985 2.586l-1.23 1.839c-1.975-1.436-4.408-2.327-6.728-2.328-5.41 0-8.588 4.224-8.588 8.937 0 5.029 3.692 8.937 8.645 8.938 4.18 0 7.128-2.788 7.529-6.122H10.735v-2.097L21.155 11.797zM33.092 22.085c4.752 0 8.044-3.046 8.043-8.017V0.389h-2.318v13.505c0 4.254-2.405 6.092-5.725 6.092s-5.669-1.81-5.669-6.092v-13.505h-2.317V14.068C25.106 19.211 28.225 22.085 33.092 22.085M56.507 11.797v2.097h7.959c-0.401 3.333-3.378 6.121-7.529 6.122-4.953 0-8.646-3.908-8.646-8.938 0-4.713 3.149-8.937 8.588-8.937 2.319 0 4.752 0.891 6.727 2.328l1.203-1.839c-2.233-1.58-4.436-2.586-7.986-2.586-5.467 0-11.079 4.34-11.079 11.034 0 6.695 5.21 11.006 11.107 11.007 6.155 0 10.076-4.655 10.077-10.288L56.507 11.797zM81.326 11.797v2.097h7.958c-0.401 3.333-3.378 6.121-7.527 6.122-4.953 0-8.646-3.908-8.646-8.938 0-4.713 3.149-8.937 8.588-8.937 2.319 0 4.752 0.891 6.727 2.328l1.23-1.839c-2.233-1.58-4.436-2.586-7.986-2.586-5.467 0-11.079 4.34-11.079 11.034 0 6.695 5.21 11.006 11.108 11.007 6.155 0 10.076-4.655 10.076-10.288L81.326 11.797zM108.435 21.74v-2.098h-10.135V11.941h9.105v-2.099h-9.105V2.486h10.135V0.389h-12.452v21.351L108.435 21.74zM114.56-0.014l-0.457 0.115v21.639h2.318V5.562L130.219 22.141l0.286-0.086V0.389h-2.319v15.92L114.56-0.014 114.56-0.014zM152.862 21.74V0.389H150.544v9.453h-11.365V0.389h-2.318v21.351h2.318v-9.771H150.544v9.771H152.862zM171.582 21.74v-2.098h-10.104V11.941H170.582v-2.099h-9.104V2.486h10.104V0.389h-12.422v21.351H171.582zM179.198 21.74V0.389H176.879v21.351H179.198zM206.076 21.74l-0.801-21.696L204.789-0.014l-8.988 16.064L186.583-0.014l-0.428 0.058-0.803 21.696h2.347l0.258-15.116 7.586 12.932h0.315l7.529-12.903 0.314 15.087L206.076 21.74z" fill="#FFFFFF" />
</svg>
