<svg width="144" height="23" viewBox="0 0 144 23" xmlns="http://www.w3.org/2000/svg">
  <defs><clipPath id="kenect_clip"><rect width="144" height="22.443" fill="#FFFFFF"/></clipPath></defs>
  <g clip-path="url(#kenect_clip)">
    <path d="M143.747 18.467C143.285 18.699 142.748 18.815 142.138 18.815C141.36 18.815 140.738 18.584 140.275 18.121C139.812 17.659 139.581 16.891 139.581 15.816V8.462H143.717V5.116H139.581V0.694H135.603V5.114H132.479V8.46H135.603V16.162C135.603 17.466 135.834 18.582 136.297 19.507C136.76 20.433 137.423 21.139 138.285 21.622C139.169 22.105 140.211 22.349 141.409 22.349C142.419 22.349 143.283 22.159 143.997 21.78L143.745 18.465L143.747 18.467Z" fill="#FFFFFF" />
    <path d="M126.233 17.898C125.455 18.404 124.55 18.656 123.518 18.656C122.593 18.656 121.751 18.445 120.992 18.025C120.255 17.583 119.665 16.973 119.225 16.195C118.803 15.417 118.594 14.563 118.594 13.638C118.594 12.712 118.805 11.828 119.225 11.05C119.667 10.272 120.257 9.662 120.992 9.219C121.749 8.757 122.591 8.525 123.518 8.525C124.446 8.525 125.369 8.787 126.17 9.314C126.97 9.819 127.484 10.597 127.715 11.65L131.599 11.019C131.2 8.998 130.252 7.452 128.757 6.378C127.263 5.305 125.516 4.768 123.518 4.768C121.835 4.768 120.308 5.157 118.94 5.935C117.593 6.713 116.531 7.776 115.753 9.123C114.995 10.47 114.616 11.975 114.616 13.638C114.616 15.3 115.005 16.774 115.785 18.119C116.565 19.464 117.626 20.529 118.973 21.307C120.341 22.065 121.856 22.443 123.518 22.443C124.738 22.443 125.928 22.212 127.085 21.749C128.264 21.266 129.273 20.539 130.115 19.571C130.977 18.582 131.536 17.362 131.788 15.908L127.842 15.56C127.568 16.612 127.031 17.39 126.233 17.896V17.898Z" fill="#FFFFFF" />
    <path d="M107.274 18.119C106.559 18.582 105.654 18.813 104.559 18.813C103.57 18.813 102.696 18.592 101.938 18.15C101.201 17.687 100.624 17.044 100.202 16.223C99.948 15.73 99.772 15.192 99.672 14.614H112.482C112.566 14.088 112.609 13.498 112.609 12.847C112.609 11.332 112.251 9.965 111.537 8.744C110.822 7.504 109.831 6.535 108.57 5.841C107.307 5.127 105.908 4.768 104.371 4.768C102.833 4.768 101.308 5.157 99.983 5.935C98.679 6.693 97.637 7.745 96.859 9.092C96.101 10.44 95.723 11.955 95.723 13.638C95.723 15.32 96.101 16.868 96.859 18.215C97.617 19.542 98.679 20.582 100.047 21.34C101.414 22.077 102.962 22.445 104.686 22.445C106.832 22.445 108.601 21.94 109.989 20.93C111.377 19.898 112.282 18.467 112.704 16.637L108.601 16.227C108.433 17.028 107.991 17.659 107.274 18.121V18.119ZM100.139 10.669C100.518 9.891 101.064 9.291 101.781 8.869C102.495 8.447 103.339 8.239 104.307 8.239C105.065 8.239 105.749 8.376 106.359 8.648C106.969 8.9 107.452 9.268 107.81 9.754C108.169 10.216 108.357 10.753 108.377 11.363H99.865C99.942 11.121 100.032 10.888 100.139 10.669Z" fill="#FFFFFF" />
    <path d="M89.816 5.745C88.784 5.092 87.585 4.766 86.217 4.766C84.974 4.766 83.85 5.071 82.839 5.681C81.911 6.234 81.133 7.01 80.503 8.007V5.112H76.967V22.095H80.912V13.572C80.955 11.953 81.344 10.71 82.079 9.848C82.837 8.986 83.836 8.554 85.079 8.554C85.856 8.554 86.553 8.744 87.163 9.123C87.773 9.481 88.246 9.985 88.584 10.638C88.919 11.291 89.089 12.039 89.089 12.88V22.097H93.035V12.626C93.035 11.068 92.75 9.7 92.183 8.523C91.636 7.323 90.846 6.398 89.816 5.745Z" fill="#FFFFFF" />
    <path d="M68.646 18.119C67.931 18.582 67.026 18.813 65.931 18.813C64.942 18.813 64.068 18.592 63.311 18.15C62.574 17.687 61.996 17.044 61.574 16.223C61.321 15.73 61.144 15.192 61.044 14.614H73.855C73.939 14.088 73.981 13.498 73.981 12.847C73.981 11.332 73.623 9.965 72.909 8.744C72.194 7.504 71.203 6.535 69.942 5.841C68.679 5.127 67.28 4.768 65.743 4.768C64.205 4.768 62.68 5.157 61.355 5.935C60.051 6.693 59.009 7.745 58.231 9.092C57.474 10.44 57.095 11.955 57.095 13.638C57.095 15.32 57.474 16.868 58.231 18.215C58.989 19.542 60.051 20.582 61.419 21.34C62.786 22.077 64.334 22.445 66.058 22.445C68.204 22.445 69.973 21.94 71.361 20.93C72.749 19.898 73.654 18.467 74.076 16.637L69.973 16.227C69.805 17.028 69.363 17.659 68.646 18.121V18.119ZM61.513 10.669C61.892 9.891 62.438 9.291 63.155 8.869C63.87 8.447 64.713 8.239 65.681 8.239C66.439 8.239 67.123 8.376 67.733 8.648C68.343 8.9 68.828 9.268 69.184 9.754C69.543 10.216 69.731 10.753 69.752 11.363H61.239C61.316 11.121 61.407 10.888 61.513 10.669Z" fill="#FFFFFF" />
    <path d="M57.183 0H51.913L42.884 9.416V0H38.748V22.097H42.884V14.811L45.754 11.838L52.891 22.097H58.067L48.592 8.898L57.183 0Z" fill="#FFFFFF" />
    <path d="M9.004 22.095H1.016C0.348 22.095 -0.137 21.463 0.035 20.816L5.28 1.241C5.477 0.508 6.14 6.104e-05 6.898 6.104e-05H14.884C15.552 6.104e-05 16.037 0.633 15.865 1.28L10.62 20.857C10.423 21.59 9.76 22.097 9.002 22.097L9.004 22.095Z" fill="#FFFFFF" />
    <path d="M27.448 22.095H14.799C14.131 22.095 13.646 21.46 13.818 20.816L16.73 9.962C16.938 9.184 17.927 8.947 18.466 9.547L28.205 20.4C28.791 21.055 28.328 22.093 27.45 22.093L27.448 22.095Z" fill="#FFFFFF" />
    <path d="M18.005 5.188L19.105 1.087C19.277 0.446 19.856 0 20.521 0H24.848C25.822 0 26.238 1.239 25.46 1.826L19.598 6.263C18.826 6.846 17.753 6.124 18.005 5.19V5.188Z" fill="#FFFFFF" />
  </g>
</svg>
