<svg id="_fb19m40" xmlns="http://www.w3.org/2000/svg" viewBox="0 0 136.008 50.427" width="136" height="50.42549082716447">
  <g>
    <g>
      <path d="M71.584 21.762c-0.046-0.219 0.021-0.426 0.135-0.68-0.632 0.251-1.201 0.492-1.867 0.296-0.238-0.069-0.543-0.403-0.572-0.656l-0.07-0.596c-0.027-0.236 0.216-0.46-0.053-0.679 0.152-0.542-0.527 0.252-1.572 0.459 0.241 0.482 0.356 0.937 0.26 1.468l1.023 0.023c0.253 0.006 0.502 0.574 0.4 0.854-0.106 0.295-0.478 0.819-0.767 0.821l-1.129 0.006-1.832 0.5c-0.396 0.108-0.896-0.072-1.111-0.438l-0.245-0.829c0.282-0.1 0.243-0.276 0.231-0.498-0.005-0.131 0.312-0.32 0.155-0.594-0.967 0.036-1.966-0.132-2.617-0.837l-0.39-0.604c-0.217-0.337-0.525-0.712-0.465-1.153 0.056-0.41 0.417-0.897 0.803-1.064 0.239-0.103 0.532-0.259 0.653-0.436l0.296-0.015c0.045-0.003 0.03-0.208-0.019-0.298 0.071 0 0.182-0.001 0.246-0.021 0.053-0.017 0.073-0.085 0.094-0.192 0.37-0.069 0.737 0.065 1.084-0.091 0.168-0.076 0.296-0.195 0.424-0.102 0.801 0.583-0.947 1.687-1.117 2.341-0.074 0.285 0.203 0.449 0.338 0.584 0.218 0.217 0.532 0.091 0.792 0.088 0.359-0.003 0.717-0.106 0.927-0.416-0.272-0.553-0.422-1.243-0.019-1.713 0.259-0.303 0.714-0.3 1.129-0.532-0.635-0.198-1.264-0.238-1.871-0.564-0.708-0.378-1.307-1.037-1.308-1.886-0.003-0.994 1.152-1.344 1.17-1.515 0.022-0.212-0.943-0.624-1.312-1.558-0.408-1.033 0.461-2.222 1.373-2.736 0.272-0.153 0.767-0.241 1.006-0.026l0.872 0.785 0.831 0.396c-0.038 0.215-0.159 0.424-0.33 0.567l-1.389 1.172c0.904 0.631 1.433 0.188 1.811 1.388 0.311 0.983 0.209 1.848-0.783 2.385 1.088 0.462 2.14 0.29 2.314 0.401 0.391 0.252-0.064 0.748 0.572 1.048 0.096 0.045 0.216 0.222 0.191 0.303-0.041 0.132-0.217 0.211-0.376 0.194l-1.801-0.186 0.118 0.807c0.024 0.164 0.143 0.472 0.313 0.506 0.321 0.066 0.532-0.283 0.771-0.389 0.346-0.153 0.684-0.189 0.977-0.416 0.438-0.34 1.005-0.208 1.302 0.256 0.282 0.438 0.373 0.94 0.343 1.482 0.352 0.012 1.138-0.76 1.244-0.987l0.483-1.035c0.097-0.208 0.478-0.086 0.597 0.024 0.362 0.332 0.069 1.294-0.491 1.825 0.651 0.326 1.316 0.172 1.841-0.3l-0.658-2.232c-0.127-0.429 0.136-0.811 0.371-1.055 0.32-0.329 0.768-0.335 1.2-0.257 0.573 0.103 0.978 0.515 1.657 0.529-0.509-0.602-1.121-1.1-1.834-1.415-0.184-0.082-0.485 0.112-0.666-0.156-0.158-0.232-0.08-0.346 0.005-0.675 0.187-0.724 0.12-1.651-0.126-2.352-0.137-0.254-0.436 0.114-0.579 0.104-0.45-0.026-1.016 0.099-1.626-0.087-0.906-0.278-1.118-1.41-0.658-2.195 0.095-0.162 0.074-0.297 0.006-0.386-0.104-0.136-0.305 0.021-0.424 0.056-1.406 0.417-1.298 0.861-1.563 0.977-0.231 0.1-0.949-0.151-1.149-0.571-0.097-0.205-0.171-0.741 0.1-0.891 0.896-0.498 1.83-0.997 2.819-1.247 1.152-0.292 2.292 0.401 2.565 1.491l0.036 0.78-0.089 0.283c-0.082 0.26 0.761 0.086 1.485 0.215l0.215-0.025c0.047-0.006 0.07 0.124 0.082 0.21 0.896 0.126 1.516 1.035 1.256 1.913 0.041 0.057 0.116 0.137 0.125 0.181 0.013 0.068-0.067 0.166-0.114 0.235-0.282 0.418-0.733 0.501-1.148 0.689-0.184 0.083-0.309 0.212-0.582 0.224l2.505 1.459c0.714 0.415 1.251 1.019 1.679 1.786l2.211-1.034c0.402-0.188 0.501-0.631 0.327-1.011l-0.481-1.044c-0.347 1.094-1.482 2.584-2.22 2.038-0.32-0.237-0.615-0.703-1.08-0.724-0.079-0.34 0.041-0.714 0.291-1.06l0.78-1.083c-0.303-0.209-0.655-0.38-0.994-0.39s-0.394-0.288-0.552-0.427c-0.521-0.461-0.578-0.955-0.423-1.603 0.135-0.568 0.352-0.992 0.869-1.38-0.308-0.089-0.449 0.074-0.558-0.052-0.258-0.294-0.488 0.306-0.627-0.114-0.85-0.237-1.738 0.094-1.945-0.297-0.085-0.162-0.112-0.344 0.069-0.522l-0.3-0.424c0.223-0.174 0.455-0.037 0.667-0.063 1.131-0.135 2.172-0.154 3.376-0.013l0.039-1.393c0.006-0.182-0.073-0.378-0.15-0.47-0.127-0.149-0.378-0.135-0.576-0.078l-0.843 0.241c-0.523 0.149-0.963 0.159-1.5 0.157l-0.863-0.003c-0.414-0.312-0.334-0.903-0.122-1.329 0.164-0.331 0.405-0.537 0.5-0.945-0.571 0.051-1.005 0.303-1.425 0.689 0.303 0.211 0.594 0.441 0.538 0.812-0.192 1.289-0.758 1.321-0.557 1.905-0.414 0.18-0.958-0.015-1.277-0.329l-1.018-1c-0.108-0.106-0.24-0.185-0.389-0.167-0.299 0.037-0.384 0.517-0.844 1.102-0.219 0.278-0.432 0.705-0.802 0.801-0.544 0.141-1.006-0.103-1.468-0.466-0.064 0.403-0.347 0.908-0.16 1.3 0.174 0.368 0.455 0.858 0.051 1.235l-0.798 0.546c-0.291 0.006-0.004-0.294-0.026-0.568-0.01-0.126-0.164-0.255-0.355-0.325 0.004-1.237 0.272-2.398 0.449-3.665-0.79-0.006-1.292-0.314-1.756-0.816l0.111 0.988c-0.094 0.428 0.164 0.681 0.231 1.066 0.055 0.317-0.352 0.751-0.651 0.918-0.499-0.163-1.304-0.191-1.669 0.188-0.478 1.097-1.257 2.017-2.453 2.212 0.006 0.512 0.411 1.09 0.652 1.607l0.272 0.579c0.179 0.738-0.382 1.456-1.063 1.803l0.664 0.808c0.23 0.28 0.534 0.388 0.834 0.549 0.191 0.103 0.113 0.403 0.029 0.527-0.358 0.531-1.545-0.063-2.248-0.705-0.55-0.502-1.013-1.049-1.445-1.677-0.272-0.395-0.283-1.053-0.047-1.471 0.289-0.509 0.872-0.624 1.443-0.667-0.679-1.44-1.158-3.092 0.277-3.578 0.418-0.141 0.9-0.237 1.279-0.481 0.483-0.311 0.4-1.56 1.545-1.844l0.857 0.381c-0.12 0.045-0.261 0.205-0.2 0.321 0.134 0.251 0.373 0.408 0.65 0.445-0.155-0.377-0.167-0.603-0.162-0.906l0.029-2.369c0.006-0.453 0.169-0.937 0.551-1.177 0.455-0.283 1.011-0.151 1.368 0.202l0.98 0.977c0.206-0.066 0.4-0.323 0.412-0.551 0.015-0.301 0.25-0.441 0.315-0.635 0.358-1.075 1.242-1.96 2.276-1.816 0.518 0.072 1.132 0.331 1.463 0.708l0.438 0.499c0.192 0.218 0.233 0.758 0.234 1.028-0.127 0.151-0.293 0.359-0.258 0.578-0.471 0.146-1.069 0.065-1.518-0.171l-1.026-0.537-0.122 0.464c-0.027-0.241-0.239-0.226-0.224-0.062-0.106 0.34-0.186 0.628-0.069 0.956l-0.367 0.533c0.428 0.103 0.784 0.308 1.069 0.707l0.806-0.995 0.618-0.457c0.504-0.372 1.217-0.162 1.764 0.063l1.438-0.748c0.846-0.44 1.698-0.854 2.638-1.009 0.571-0.047 1.114 0.223 1.175 0.766-0.273 0.753-0.758 1.297-1.231 1.98l1.996-0.253c0.559-0.071 1.133 0.046 1.524 0.465 0.794 0.851 0.932 2.711-0.088 2.914 0.233 0.291 0.456 0.546 0.535 0.872 0.077 0.322-0.064 0.492-0.278 0.777 0.435 0 0.955-0.11 1.22 0.185 0.363 0.403 0.688 0.761 1.118 1.103l1.223 0.973c0.265 0.211 0.347 0.529 0.309 0.839-0.058 0.469-0.896 1.178-1.703 1.163 0.562 1.161 1.114 2.69 0.249 3.551l-0.268 0.055c-0.062 0.012-0.003 0.183-0.02 0.238l-0.71 0.37c-0.191 0.1-0.137 0.169-0.372 0.218-0.492 0.103-1.113 0.272-1.597-0.063-0.136-0.109-0.188-0.466-0.431-0.557l-0.027-0.603c-0.726 0.064-0.504 1.194-1.249 1.394-1.085 0.291-1.796-0.628-2.957-0.628 0.403 0.857 0.667 1.654 0.546 2.539 0.607 0.008 1.032 0.292 1.44 0.659 0.067 0.076 0.204 0.035 0.182-0.073l-0.359-1.84c-0.034-0.174 0.032-0.365 0.131-0.426 0.8-0.502 1.454 3.235 1.203 4.637-0.08 0.331-0.628 0.66-0.911 0.709-0.884 0.151-1.469-0.91-2.293-1.142l-0.522 1.115c-0.379 1.092-1.452 1.569-2.53 1.179l-0.791-0.286c-0.368-0.133-0.497-0.243-0.726-0.508-0.403-0.467-0.621-1.021-0.327-1.661 0.041-0.09-0.046-0.344 0.141-0.368 0.05-0.006 0.099-0.051 0.11-0.104ZM81.772 11.761c0.146-0.115 0.253-0.512 0.334-0.711-0.617-0.388-0.938-0.872-1.049-1.572l-1.128 1.255c0.52 0.241 1.067 0.469 1.473 0.797 0.077 0.062 0.14 0.412 0.37 0.23ZM75.356 21.425c-0.012-0.038-0.091-0.158-0.18-0.153l-0.568 0.027c-0.535-0.379-1.067-0.715-1.315-1.304-0.05-0.126 0.139-0.44-0.108-0.571-0.499 0.423-0.744 1.041-1.425 1.523 0.818 0.686 2.025 1.542 2.927 1.267 0.143-0.044 0.635-0.898 0.669-0.788ZM71.596 21.871l-0.076 0.02c0.046 0.066 0.071 0.031 0.076-0.02Z" fill="#FFFFFF" />
      <path d="M70.764 15.178c-0.546-0.021-0.734-0.191-0.966-0.61-0.096-0.172-0.493-0.32-0.431-0.63 0.039-0.197 0.071-0.369-0.125-0.56 0.302-0.049 0.427-0.144 0.617-0.281 0.224-0.16 0.691 0.191 0.977 0.02 0.099-0.06 0.102-0.379-0.054-0.439-0.062 0.003-0.239 0.206-0.336 0.137-0.356-0.382-0.823-0.308-0.846-0.569-0.01-0.115 0.185-0.117 0.247-0.145l0.467-0.674c0.438-0.066 1.122-0.424 1.498-0.153l0.833 0.598c0.288 0.206 0.409 0.869 0.32 1.176-0.025 0.087-0.134 0.159-0.131 0.204s0.082 0.132 0.141 0.179c0.006 0.157-0.244 0.099-0.335 0.134 0.431 0.566-0.29 0.391-0.35 0.966-0.02 0.187-0.287 0.18-0.371 0.259-0.311 0.297-0.706 0.406-1.155 0.388Z" fill="#FFFFFF" />
    </g>
    <g>
      <g>
        <g>
          <path d="M45.56 25.803l-24.839 22.434 0.011-26.536 24.828 4.101ZM33.585 29.146c-0.339-1.061-1.105-1.854-2.111-2.302-0.687-0.276-1.39-0.442-2.15-0.443l-5.189-0.004v8.795s5.075-0.003 5.075-0.003c0.876 0 1.696-0.172 2.477-0.544 2.012-0.991 2.551-3.454 1.898-5.499Z" fill="#FFFFFF" />
          <path d="M31.143 30.682c0.081 1.298-0.85 2.318-2.091 2.321l-2.351 0.008 0.003-4.438 2.414 0.015c1.121 0.008 1.984 0.92 2.025 2.094Z" fill="#FFFFFF" />
        </g>
        <g>
          <g>
            <path d="M56.445 24.751l-19.947-2.386 9.136-19.301 10.82 0.005-0.009 21.682ZM50.676 16.332l0.012 2.073 2.583-0.006-0.053-5.448c-0.105-1.675-1.224-2.962-2.807-3.351-1.044-0.256-2.058-0.26-3.103-0.019-1.689 0.388-2.891 1.78-2.9 3.546l-0.025 5.283 2.581-0.023 0.004-2.062 3.709 0.007Z" fill="#FFFFFF" />
            <path d="M50.679 14.352l-3.711 0.006 0.012-1.336c0.006-0.674 0.478-1.186 1.128-1.348 0.443-0.109 0.905-0.112 1.354-0.018 0.709 0.151 1.197 0.728 1.206 1.454l0.011 1.241Z" fill="#FFFFFF" />
          </g>
          <path d="M35.302 21.719l-14.495-1.218 2.926-17.432 19.532 0.003-7.963 18.647ZM34.594 11.313l-4.956-0.003 0.011-1.423 5.41 0.003 0.007-2.187h-8.007s0.003 8.786 0.003 8.787l2.564 0.015 0.02-3.023h4.951s0-2.169 0-2.17Z" fill="#FFFFFF" />
        </g>
      </g>
      <path d="M19.182 19.725L-0.004 17.141V3.069s22.023 0 22.023 0l-2.837 16.655ZM12.673 15.039l2.503-0.004v-8.798s-2.57 0.002-2.57 0.003l-2.207 3.754-2.203-3.759-2.576 0.003v8.795s2.525 0.006 2.526 0.005l0.022-4.714 1.785 2.942c0.322 0.043 0.623 0.059 0.915-0.019l1.782-2.918 0.024 4.709Z" fill="#FFFFFF" />
    </g>
  </g>
  <g>
    <g>
      <path d="M77.202 37.046l-22.135 12.956-3.623-1.672 10.965-21.004 14.777 1.996 0.015 7.725ZM70.392 37.157c-0.068-1.815-1.513-2.302-3.142-2.617l-2.452-0.474c-0.333-0.064-0.539-0.329-0.532-0.629 0.015-0.762 1.411-0.845 2.448-0.571 0.563 0.149 0.943 0.564 0.959 1.19l2.539 0.002c0.032-1.31-0.778-2.457-2.08-2.89-2.282-0.76-5.965-0.429-6.456 1.738-0.209 0.919-0.037 1.835 0.64 2.423 0.612 0.533 1.39 0.723 2.171 0.874l2.612 0.503c0.321 0.062 0.562 0.315 0.58 0.588 0.061 0.892-1.61 1.015-2.725 0.74-0.637-0.158-1.013-0.678-1.027-1.335l-2.592-0.002c-0.123 1.461 0.731 2.677 2.177 3.075 2.594 0.714 6.996 0.515 6.88-2.616Z" fill="#FFFFFF" />
      <path d="M49.144 47.438l-14.394-10.391 13.994-11.604 12.275 2.27-11.874 19.725ZM51.394 36.401v-1.97s-4.795 0-4.794 0l0.001-1.199 5.409-0.001-0.024-2.182h-7.978s-0.005 8.801-0.005 8.801l8.004-0.006-0.012-2.173-5.407-0.004 0.006-1.266h4.798Z" fill="#FFFFFF" />
    </g>
    <g>
      <path d="M94.342 38.172h-15.638s0-11.451 0-11.452l12.794-12.121 7.857 4.976-5.013 18.597ZM92.742 33.606l-0.006-2.198-3.244-0.005-0.003-4.388 3.255-0.014-0.003-2.187-9.097-0.004-0.009 2.199 3.226 0.007-0.003 4.389-3.232 0.008 0.014 2.199 9.101-0.004Z" fill="#FFFFFF" />
      <g>
        <path d="M127.833 38.162l-31.042 0.01 3.394-17.572 27.648 17.562ZM107.267 32.651c0.002 0.583-0.343 1.038-0.874 1.209-1.144 0.369-2.483 0.038-2.808-1.173-0.207-0.772-0.196-1.583 0-2.353 0.195-0.769 0.826-1.208 1.613-1.219 0.781-0.095 1.516 0.201 1.924 0.902l2.672 0.003c-0.188-1.351-1.087-2.335-2.354-2.744-1.303-0.387-2.677-0.388-3.999-0.043s-2.205 1.289-2.499 2.577c-0.285 1.252-0.277 2.538 0.085 3.774 0.741 2.525 3.568 3.018 5.998 2.474 2.402-0.711 3.004-2.828 2.836-5.281h-4.323s0.001 1.866 0.001 1.866l1.728 0.006Z" fill="#FFFFFF" />
        <path d="M135.165 38.156h-4.228s-17.091-11.074-17.091-11.074l21.314-11.626 0.005 22.701ZM132.993 31.549l-0.009-8.782-2.457 0.015-0.034 4.843-3.53-4.856h-2.582s-0.002 8.799-0.003 8.799l2.474-0.006 0.022-5.102 3.612 5.097 2.507-0.008Z" fill="#FFFFFF" />
      </g>
    </g>
  </g>
</svg>