<svg width="103" height="36.62222222222222" viewBox="0 0 103 36.622" xmlns="http://www.w3.org/2000/svg">
  <path d="M30.19 14.711C30.19 21.842 25.112 31.946 16.885 31.946 15.584 31.946 14.355 31.643 13.403 31.173 13.096 32.967 12.851 34.906 12.694 36.999 12.694 36.999 8.069 37 6.624 37 6.841 23.981 13.416 11.348 17.078 11.347 19.584 11.347 20.803 13.372 20.803 13.372 20.803 13.372 16.93 17.3 14.502 26.195 15.153 26.538 16.071 26.795 17.078 26.795 20.934 26.795 24.405 20.257 24.405 14.512 24.405 10.153 21.947 6.786 17.597 6.786 11.987 6.786 5.779 13.323 5.779 22.239 5.779 22.239 0 23.625 0 17.682 0 10.153 7.158 1.437 16.841 1.437 24.614 1.437 30.189 6.191 30.189 14.71L30.19 14.711ZM46.124 9.016C42.861 9.016 40.601 10.709 38.844 13.068 38.895 11.265 38.068 9.598 35.914 9.598 35.914 9.598 30.703 18.926 29.354 31.558H35.331C36.487 18.538 40.536 13.291 46.427 15.428L49.8 9.793C49.8 9.793 48.63 9.016 46.124 9.016L46.124 9.016ZM82.965 9.307C80.394 14.263 76.602 26.214 76.602 26.214H76.023C75.348 18.344 75.445 9.696 75.445 9.696 72.746 8.53 69.371 9.987 69.371 9.987 69.371 18.538 62.623 26.602 57.128 26.602 54.33 26.602 53.078 25.044 52.909 22.549 53.651 22.642 54.509 22.716 55.393 22.716 61.37 22.716 65.419 18.344 65.419 14.36 65.419 11.153 63.587 8.821 59.345 8.821 52.404 8.821 46.813 16.594 46.813 22.424 46.813 28.578 49.897 31.946 55.875 31.946 62.494 31.946 67.715 26.211 70.18 21.2 70.609 24.708 71.265 28.465 72.264 31.558H79.783C79.783 31.558 84.443 19.121 90.195 9.21 87.785 9.242 85.022 9.307 82.965 9.307V9.307ZM59.635 12.999C62.141 12.999 61.177 19.412 55.007 19.412 54.534 19.412 53.943 19.364 53.373 19.302 54.485 16.093 57.296 12.999 59.635 12.999ZM94.002 26.178C91.872 24.063 99.539 9.462 99.539 9.462L93.176 9.462C93.176 9.462 87.423 20.345 87.537 25.885 87.617 29.796 89.397 31.946 92.674 31.946 96.723 31.946 99.929 28.427 101.415 25.69L99.344 23.441C98.034 25.397 95.298 27.466 94.002 26.178ZM99.131 0.001C96.855 0.031 94.79 1.767 94.519 3.877 94.248 5.987 95.872 7.673 98.148 7.642 100.423 7.612 102.488 5.876 102.76 3.766 103.032 1.656 101.406-0.03 99.131 0.001Z" fill="#FFFFFF" />
</svg>