<svg id="_pzgqbk0" xmlns="http://www.w3.org/2000/svg" viewBox="288.004 49.854 146.002 25.306" width="146" height="25.303676136486565">
  <path d="M300.183 60.32h0.002c-4.446-1.242-5.774-1.966-5.774-3.684 0-1.24 1.08-2.307 3.9-2.307 1.615 0 3.983 0.286 5.958 2.064 0.174 0.172 0.463 0.03 0.576-0.06l2.532-2.511c0.144-0.132 0.075-0.316-0.075-0.519C305.379 50.864 301.788 50.081 298.382 50.081 293.226 50.081 289.253 52.348 289.253 56.668s3.077 6.354 8.892 8.002c3.324 0.935 5.156 1.658 5.156 3.406s-2.078 2.675-4.693 2.675c-2.758 0-5.238-0.579-7.317-2.643-0.103-0.132-0.392-0.074-0.535 0.102L288.101 71.066c-0.075 0.164 0 0.336 0.113 0.438 2.438 2.583 6.237 3.58 10.065 3.579 5.382 0 10.004-2.267 10.003-7.107s-3.047-6.252-8.099-7.656Z" fill="#FFFFFF" />
  <path d="M334.145 50.516h-4.476c-0.257 0-0.433 0.214-0.433 0.346v14.428c0 3.122-1.152 5.114-5.115 5.113-3.736 0-5.095-1.78-5.095-4.972V50.973c0-0.184-0.144-0.457-0.4-0.457h-4.406c-0.247 0-0.423 0.274-0.422 0.457v15.139c0 5.775 3.86 8.835 10.25 8.835s10.446-3.132 10.447-8.936V50.862c0-0.132-0.133-0.346-0.35-0.346Z" fill="#FFFFFF" />
  <path d="M351.022 50.21h0c-6.35 0-10.467 3.132-10.466 8.927v15.159c0 0.132 0.144 0.336 0.36 0.336h4.476c0.247 0 0.433-0.204 0.433-0.336V59.86c0-3.122 1.142-5.114 5.125-5.113 3.716 0 5.085 1.79 5.084 4.981v14.458c0 0.184 0.144 0.447 0.401 0.448h4.405c0.247 0 0.433-0.264 0.433-0.448V59.037c0-5.765-3.87-8.825-10.251-8.825Z" fill="#FFFFFF" />
  <path d="M406.945 50.516h-4.477c-0.247 0-0.423 0.214-0.422 0.346v14.428c0 3.122-1.152 5.114-5.135 5.113-3.726 0-5.085-1.78-5.085-4.972V50.973c0-0.184-0.144-0.457-0.392-0.457h-4.406c-0.257 0-0.433 0.274-0.433 0.457v15.139c0 5.775 3.87 8.835 10.241 8.835s10.467-3.132 10.466-8.936V50.862c0-0.132-0.144-0.346-0.359-0.346Z" fill="#FFFFFF" />
  <path d="M423.822 50.21h0c-6.34 0-10.457 3.132-10.456 8.927v15.159c0 0.132 0.144 0.336 0.349 0.336h4.477c0.257 0 0.433-0.204 0.432-0.336V59.86c0-3.122 1.152-5.114 5.115-5.113 3.736 0 5.095 1.79 5.095 4.981v14.458c0 0.184 0.144 0.447 0.401 0.448h4.405c0.257 0 0.433-0.264 0.433-0.448V59.037c0-5.765-3.87-8.825-10.251-8.825Z" fill="#FFFFFF" />
  <path d="M381.268 50.26h0s-0.154 0-0.154 0c-1.256-0.03-1.719-0.052-2.201-0.052-6.34 0-10.467 3.132-10.467 8.927v15.159c0 0.132 0.154 0.336 0.36 0.336h4.486c0.247 0 0.423-0.204 0.423-0.336V59.858c0-3.122 1.152-5.114 5.115-5.113h2.438c0.443 0 0.782-0.346 0.783-0.753V51.023c0-0.417-0.34-0.763-0.783-0.763Z" fill="#FFFFFF" />
</svg>