<svg id="_00moog0" xmlns="http://www.w3.org/2000/svg" viewBox="0 0 190.265 35" width="190.2549342105263" height="35">
  <path d="M163.434 11.826h21.193V0h-5.667v8.363h-9.835V0h-5.679l-1.545 4.421h1.545v7.405Z" fill="#FFFFFF" />
  <path d="M122.189 11.826h16.631v-3.389h-10.94v-4.016h12.975V0h-18.666l-1.545 4.421h1.545v7.418Z" fill="#FFFFFF" />
  <path d="M106.049 11.826h5.679V4.421h7.027l1.546-4.421h-20.886l-1.546 4.421h8.18v7.418Z" fill="#FFFFFF" />
  <path d="M148.361 4.421v7.405h-5.69V3.205c0-1.768 1.435-3.205 3.2-3.205h15.576l-1.619 4.421h-11.455Z" fill="#FFFFFF" />
  <path d="M163.434 21.909h5.678v-9.297h-5.678v9.297Z" fill="#FFFFFF" />
  <path d="M178.948 21.909h5.679v-9.297h-5.679v9.297Z" fill="#FFFFFF" />
  <path d="M127.88 12.612h-5.691v9.297h18.666v-4.409h-12.975v-4.888Z" fill="#FFFFFF" />
  <path d="M106.049 21.909h5.679v-9.297h-5.679v9.297Z" fill="#FFFFFF" />
  <path d="M148.361 17.488v-4.888h-5.69v6.005c0 1.818 1.472 3.291 3.286 3.291h14.533v-4.421h-12.129Z" fill="#FFFFFF" />
  <path d="M65.528 11.826h21.193V0h-5.678v8.363h-9.836V0h-5.679l-1.545 4.421h1.545v7.405ZM48.653 11.826l2.98-8.019 2.98 8.019h5.703l-3.422-9.689c-0.454-1.277-1.668-2.137-3.017-2.137h-6.745l-4.17 11.826h5.703ZM1.546 11.826h5.69V0H1.546L0.001 4.421h1.545v7.418ZM18.201 4.421h-4.538V0h30.967l-1.533 4.421h-6.978v7.418h-5.679V4.421h-6.549v7.418h-5.69V4.421Z" fill="#FFFFFF" />
  <path d="M81.043 21.909h5.678v-9.297h-5.678v9.297ZM65.528 21.909h5.679v-9.297h-5.679v9.297ZM42.68 12.612l-3.287 9.297h5.544l2.171-5.92h9.051l2.17 5.92h5.531l-3.286-9.297h-17.894ZM30.44 21.909h5.679v-9.297h-5.679v9.297ZM23.891 12.612v9.297H4.845c-1.815 0-3.287-1.474-3.287-3.291v-6.006h5.691v4.888h10.952v-4.888h5.69Z" fill="#FFFFFF" />
  <path d="M187.067 20.484h-0.564v-0.27h1.423v0.27h-0.552v1.425h-0.307v-1.425Z" fill="#FFFFFF" />
  <path d="M189.716 21.909v-1.118l-0.552 0.921h-0.135l-0.552-0.908v1.105h-0.294v-1.695h0.258l0.674 1.118 0.662-1.118h0.258v1.695h-0.294Z" fill="#FFFFFF" />
  <path d="M40.62 27.595v4.347c0 2.039-1.509 2.984-3.336 2.984s-3.348-0.946-3.348-2.984v-4.347h1.533v4.286c0 1.044 0.589 1.695 1.815 1.694s1.803-0.639 1.803-1.694v-4.286h1.533Z" fill="#FFFFFF" />
  <path d="M53.289 27.595h1.533v7.209h-1.435l-3.937-4.827h-0.025s0.098 1.105 0.099 1.658v3.169h-1.533v-7.209h1.447l3.924 4.801h0.025s-0.098-1.118-0.098-1.535v-3.266Z" fill="#FFFFFF" />
  <path d="M63.762 34.804h-1.533v-7.209h1.533v7.209Z" fill="#FFFFFF" />
  <path d="M70.41 27.595h1.717l1.618 3.844c0.147 0.356 0.417 1.339 0.417 1.338h0.062s0.27-0.982 0.417-1.338l1.606-3.844h1.73l-3.017 7.209h-1.533l-3.017-7.209Z" fill="#FFFFFF" />
  <path d="M86.145 31.709v1.756h4.059v1.339h-5.592v-7.209h5.396v1.351h-3.863v1.584h3.397v1.179h-3.397Z" fill="#FFFFFF" />
  <path d="M99.697 31.033c1.03 0 1.472-0.319 1.471-1.08 0-0.614-0.307-1.056-1.373-1.057h-1.19v2.125h1.104ZM97.06 27.595h2.747c1.987 0 2.87 0.982 2.87 2.333 0 0.811-0.343 1.584-1.165 1.977v0.037l1.778 2.874h-1.717l-1.643-2.604h-1.349v2.604h-1.533v-7.209Z" fill="#FFFFFF" />
  <path d="M123.771 34.804h-1.533v-7.209h1.533v7.209Z" fill="#FFFFFF" />
  <path d="M133.08 28.946h-2.649v-1.364h6.819v1.364h-2.649v5.845h-1.533v-5.845Z" fill="#FFFFFF" />
  <path d="M147.785 34.804h-1.533v-2.936l-2.895-4.273h1.754l1.288 1.866c0.098 0.16 0.576 1.056 0.576 1.057h0.037s0.503-0.884 0.613-1.057l1.276-1.866h1.778l-2.907 4.273v2.936Z" fill="#FFFFFF" />
  <path d="M113.972 29.277c-0.27-0.405-0.724-0.663-1.398-0.663s-1.055 0.393-1.055 0.921c0 0.442 0.221 0.712 0.761 0.884l0.932 0.283c1.312 0.418 1.791 1.093 1.79 2.026 0 1.425-1.104 2.26-2.649 2.26-1.619 0-2.33-0.774-2.637-1.351l0.982-0.811c0.27 0.516 0.662 0.946 1.655 0.946 0.748 0 1.165-0.368 1.165-0.933 0-0.454-0.27-0.725-0.834-0.897l-0.919-0.282c-1.288-0.405-1.742-1.13-1.742-2.039 0-1.142 0.724-2.235 2.527-2.235 1.275 0 1.987 0.528 2.391 1.093l-0.981 0.798Z" fill="#FFFFFF" />
</svg>